<svg width="191" height="34" viewBox="0 0 191 34" fill="none" xmlns="http://www.w3.org/2000/svg">
<g clip-path="url(#clip0_494_1305)">
<path d="M13.6537 24.2969L13.6581 24.3229C13.674 24.4204 13.676 24.4832 13.6467 24.5776L13.6683 24.5876C13.7483 24.5382 13.8114 24.424 13.8939 24.3972L13.8984 24.4212C13.81 24.5472 13.6556 24.6683 13.5449 24.7788C13.5704 24.6145 13.6045 24.4557 13.6537 24.2969Z" fill="#95A4F4"/>
<path d="M13.6535 24.2969C13.7216 23.8874 13.8459 23.478 13.9415 23.0733C14.0382 22.6641 14.1137 22.2397 14.2314 21.8367C14.2543 21.758 14.2808 21.6771 14.331 21.6113C14.489 21.4042 14.8798 21.154 15.1003 20.9842L16.2936 20.0615C16.1661 20.6333 16.0946 21.2175 16.0116 21.7972C15.9833 21.9948 15.9779 22.3217 15.9053 22.4988C15.8498 22.6341 14.1197 24.2522 13.8982 24.4212L13.8937 24.3972C13.8112 24.424 13.748 24.5383 13.668 24.5876L13.6465 24.5776C13.6758 24.4832 13.6737 24.4204 13.6578 24.3229L13.6535 24.2969Z" fill="#EAB711"/>
<path d="M26.1536 12.3679C26.1945 12.3612 26.1962 12.3553 26.2358 12.3735C26.2319 12.3825 26.2295 12.3924 26.2242 12.4007C26.1617 12.4977 26.0272 12.6014 25.9452 12.6854L25.2132 13.4458C24.995 13.6747 24.266 14.493 24.0553 14.6196C23.8517 14.742 22.0396 14.9062 21.6573 14.9684C21.6149 14.9729 21.6082 14.9811 21.5703 14.9582C21.5815 14.9367 21.5835 14.9315 21.5995 14.9089C21.7543 14.69 21.9562 14.483 22.1259 14.2735C22.4092 13.9236 22.683 13.5513 22.9847 13.2181C23.0385 13.1587 23.0981 13.1042 23.1667 13.0623C23.3989 12.9204 24.286 12.7828 24.5945 12.7153L26.1536 12.3679Z" fill="#EAB711"/>
<path d="M18.412 7.60547C18.4903 7.71067 19.2508 10.383 19.3041 10.6831C19.2026 10.9771 19.0694 11.2639 18.9488 11.5506C18.7508 12.0256 18.55 12.4993 18.3465 12.972C18.1699 12.5755 18.0289 12.1548 17.873 11.7489C17.7332 11.3847 17.564 11.0137 17.4609 10.6382C17.5311 10.3036 17.6675 9.9639 17.7714 9.63724L18.412 7.60547Z" fill="#EAB711"/>
<path d="M24.2971 15.9935C24.334 15.9925 24.3656 15.993 24.4016 16.003C24.9002 16.1405 25.394 16.315 25.8897 16.4651C26.3884 16.6161 26.9009 16.7449 27.3929 16.9152C27.0623 17.0443 26.7132 17.1323 26.3726 17.2316L24.9009 17.6676C24.771 17.7069 24.6413 17.7477 24.511 17.7854C24.4334 17.8078 24.3442 17.829 24.2631 17.8143C24.0135 17.7689 23.7458 17.6198 23.5089 17.525C23.0106 17.3255 22.4659 17.1532 21.998 16.894C22.3141 16.796 22.6206 16.6613 22.9277 16.5384L24.2971 15.9935Z" fill="#EAB711"/>
<path d="M18.1046 20.5869C18.1961 20.6873 18.8886 22.5597 19.008 22.8598C18.9607 23.1852 18.7144 23.8239 18.6026 24.1688C18.4164 24.7436 18.2603 25.3476 18.0325 25.9068L18.0202 25.9095C17.9705 25.8574 17.8433 25.3108 17.8121 25.1974C17.6012 24.423 17.378 23.6522 17.1426 22.885C17.2295 22.5988 17.3705 22.3151 17.4863 22.0381C17.689 21.5533 17.8862 21.0649 18.1046 20.5869Z" fill="#EAB711"/>
<path d="M12.0511 15.8466C12.0936 15.8432 12.1356 15.8497 12.1759 15.8632C12.5599 15.9915 12.9412 16.1748 13.3176 16.3264C13.686 16.4747 14.0815 16.5975 14.4326 16.782C13.644 17.0788 12.8633 17.3936 12.0803 17.705C11.9165 17.6614 11.7551 17.602 11.5941 17.5488C10.7428 17.2763 9.87512 17.0489 9.03125 16.7536C10.0425 16.4763 11.0452 16.1445 12.0511 15.8466Z" fill="#EAB711"/>
<path d="M14.8894 18.5332L14.8945 18.5631C14.8768 18.5923 14.8581 18.6203 14.8375 18.6476C14.6641 18.8767 13.4603 20.3792 13.3222 20.4668C13.2493 20.513 13.1383 20.5384 13.0551 20.5599C12.5138 20.6994 11.956 20.7954 11.4096 20.916C11.0191 21.0022 10.6129 21.1305 10.2168 21.1767L10.2233 21.1352C10.5447 20.7655 10.9081 20.4239 11.2488 20.0718C11.5896 19.7196 11.9224 19.3414 12.2832 19.0106C12.3317 18.9662 12.3855 18.9184 12.4475 18.8943C12.6905 18.7999 13.0601 18.7919 13.3269 18.7581C13.8498 18.6919 14.3712 18.6312 14.8894 18.5332Z" fill="#EAB711"/>
<path d="M22.8607 8.93359C22.875 8.9484 22.878 8.9601 22.8776 8.98182C22.8757 9.09086 22.8128 9.24927 22.7853 9.35868C22.7028 9.68145 22.6233 10.005 22.547 10.3292L22.2942 11.4047C22.2508 11.588 22.2211 11.8159 22.1404 11.9854C22.0405 12.195 20.483 13.3487 20.1759 13.5783C20.154 13.5599 20.1516 13.5479 20.1525 13.5176C20.1576 13.3337 20.2335 13.113 20.2622 12.9291C20.308 12.6359 20.4513 11.3178 20.5482 11.1475C20.6924 10.8939 21.2442 10.4375 21.4778 10.2183C21.9344 9.7854 22.3954 9.35716 22.8607 8.93359Z" fill="#EAB711"/>
<path d="M13.6914 8.83496C14.0748 9.17263 14.4346 9.54487 14.8092 9.89322C15.2143 10.2698 15.6704 10.6509 16.0382 11.0621C16.0819 11.2719 16.0941 11.4959 16.1217 11.7089C16.2002 12.3146 16.265 12.9541 16.4107 13.5462C16.301 13.4744 16.1978 13.3932 16.0938 13.3136C15.8205 13.1044 15.5553 12.8853 15.2839 12.6736C15.067 12.5043 14.5995 12.1924 14.4466 11.9906C14.4019 11.9316 14.3795 11.8424 14.3602 11.7713C14.2085 11.2128 14.101 10.6324 13.9712 10.0679C13.8782 9.66403 13.7459 9.24508 13.6914 8.83496Z" fill="#EAB711"/>
<path d="M10.3535 12.0098C10.744 12.048 11.2954 12.2286 11.6949 12.3301C12.2363 12.4676 12.7901 12.582 13.3255 12.7389C13.3865 12.7568 13.4698 12.7778 13.5157 12.8231C13.7754 13.0802 14.0025 13.4419 14.2264 13.7344C14.4605 14.0401 14.8382 14.4648 15.0145 14.7902C14.5731 14.7327 14.13 14.6417 13.6901 14.5706C13.4561 14.5329 12.759 14.4626 12.5852 14.3815C12.5067 14.3448 12.4319 14.2636 12.3712 14.2015C11.9363 13.7574 11.5257 13.2779 11.106 12.8184C10.8601 12.5494 10.583 12.2905 10.3535 12.0098Z" fill="#EAB711"/>
<path d="M20.0293 20.1553C20.0402 20.1609 20.0513 20.166 20.0619 20.1722C20.2583 20.286 21.9069 21.5908 21.9872 21.712C22.0934 21.8724 22.6359 24.403 22.7343 24.8295C22.7161 24.8195 22.7141 24.8189 22.6943 24.805C22.4944 24.6646 20.4748 22.7481 20.4091 22.6157C20.328 22.4522 20.2722 21.7988 20.243 21.5873C20.177 21.1093 20.1145 20.6304 20.0293 20.1553Z" fill="#EAB711"/>
<path d="M21.4238 18.7432C21.9873 18.8627 22.5613 18.9324 23.1302 19.0216C23.3665 19.0586 23.6618 19.074 23.8831 19.1629C23.9637 19.1953 24.031 19.2675 24.0921 19.3281C24.3313 19.5656 24.5421 19.8327 24.7707 20.0804C25.2117 20.5586 25.6661 21.0278 26.0782 21.5317C25.7592 21.48 23.1107 20.8217 22.982 20.7329C22.7749 20.5898 21.6393 19.0338 21.4238 18.7432Z" fill="#EAB711"/>
<path d="M3.37415 15.6777C3.58471 15.7046 4.00779 15.919 4.22239 16.0048C4.78337 16.2291 5.35262 16.4371 5.90738 16.6763C5.64915 16.816 5.35033 16.913 5.07697 17.0215C4.51981 17.2384 3.96433 17.4595 3.41052 17.6848C3.21568 17.6359 3.0248 17.5723 2.83338 17.5116C2.3465 17.3779 1.86348 17.2218 1.37935 17.0779C0.947353 16.9495 0.502335 16.8341 0.0800781 16.6766C0.685155 16.4998 1.28913 16.3192 1.89199 16.135C2.38664 15.9863 2.88606 15.8466 3.37415 15.6777Z" fill="#95A4F4"/>
<path d="M32.9895 15.9561C33.0792 15.9688 33.1709 16.0101 33.2582 16.0366L33.8895 16.2233C34.7021 16.4667 35.528 16.6963 36.3263 16.9815C35.4299 17.2243 34.5518 17.5254 33.6571 17.7709C33.4357 17.8413 33.2129 17.9065 32.9886 17.9664C32.6968 17.8738 32.4074 17.7333 32.1223 17.6194L30.4961 16.9809C30.7118 16.8606 30.9532 16.7741 31.1818 16.6802C31.7817 16.4336 32.3974 16.2203 32.9895 15.9561Z" fill="#95A4F4"/>
<path d="M9.27148 1.05762C9.29158 1.07114 9.31121 1.08446 9.32985 1.09993C9.46465 1.21171 9.58359 1.35208 9.71171 1.47286C9.9822 1.72786 11.7094 3.29493 11.7773 3.43283C11.8527 3.58611 12.1353 5.75271 12.1686 6.09802C11.9445 5.97587 11.6222 5.68194 11.4071 5.51343L10.5348 4.82396C10.374 4.69721 10.2056 4.57721 10.0528 4.44085C9.89339 3.78789 9.75343 3.13003 9.596 2.47643C9.48403 2.01151 9.33546 1.53098 9.27148 1.05762Z" fill="#95A4F4"/>
<path d="M27.2343 1.32424C27.2753 1.28452 27.3152 1.24268 27.3603 1.20801C27.3469 1.36497 27.3193 1.51312 27.275 1.66437C27.1975 1.92268 27.1513 2.20017 27.0905 2.46361C26.9288 3.16284 26.7792 3.87172 26.5956 4.56524C26.3423 4.82249 26.0141 5.04342 25.73 5.26742C25.3153 5.59447 24.899 5.95603 24.4551 6.24242C24.5665 5.63941 24.6393 5.02656 24.7266 4.41951C24.7674 4.1358 24.7963 3.84106 24.8662 3.56329C25.1501 3.25904 25.4725 2.97926 25.7772 2.69547L27.2343 1.32424Z" fill="#95A4F4"/>
<path d="M24.2363 27.5322C24.4639 27.6741 24.8052 27.9841 25.0295 28.1614C25.4665 28.507 25.9296 28.8373 26.3467 29.2058C26.6052 30.3244 26.8823 31.4388 27.1327 32.5588C27.0516 32.5346 24.8184 30.4451 24.612 30.2224C24.5143 29.7928 24.4759 29.3338 24.4136 28.8972C24.3499 28.4499 24.2469 27.9824 24.2363 27.5322Z" fill="#95A4F4"/>
<path d="M11.9031 27.4199C11.9215 27.4255 11.9095 27.4205 11.934 27.4436C11.902 27.7037 11.8477 27.9612 11.8116 28.2208C11.7651 28.5558 11.6301 29.8408 11.519 30.0621C11.4088 30.2812 10.1983 31.3407 9.93051 31.5916C9.64385 31.8603 9.36536 32.1382 9.07672 32.4044C9.04901 32.398 9.06381 32.4042 9.03516 32.3799C9.03885 32.3537 9.04301 32.3276 9.04762 32.3016C9.10033 31.9997 9.76335 29.1635 9.82267 29.0748C9.94685 28.8895 11.5839 27.646 11.9031 27.4199Z" fill="#95A4F4"/>
<path d="M7.11766 12.1491C7.34718 12.1473 7.77703 12.0999 7.98129 12.1703C8.16306 12.2329 11.2381 14.5612 11.604 14.8711C11.2787 14.92 10.948 14.9481 10.6211 14.9859L8.57953 15.2178C8.22784 15.2573 7.39885 15.3985 7.08195 15.3709C6.97307 15.3614 6.87688 15.2835 6.78709 15.226L3.13941 12.9518C2.78588 12.728 2.42376 12.5181 2.07422 12.2879C3.1255 12.2922 4.18033 12.2329 5.23125 12.2006C5.85508 12.1815 6.49737 12.2138 7.11766 12.1491Z" fill="#95A4F4"/>
<path d="M14.0174 0.568359C14.1701 0.70277 14.4982 1.30441 14.6228 1.50581L16.058 3.83533C16.4038 4.39879 16.7892 4.9577 17.1006 5.53991C17.0842 6.04288 16.9786 6.64165 16.9167 7.15053C16.8172 8.03758 16.7095 8.92366 16.5937 9.80875L16.5654 10.0819C16.3387 9.83637 16.1486 9.5491 15.9489 9.28086C15.5643 8.76719 15.1836 8.25068 14.8068 7.73135L14.1641 6.8654C14.0476 6.70894 13.9025 6.54899 13.8164 6.37408C13.8705 6.13918 13.8578 5.89801 13.8684 5.65879C13.8936 5.08536 13.898 4.51201 13.9135 3.93852C13.9357 3.11358 13.9855 2.28952 14.002 1.46408C14.008 1.16487 14.0295 0.867815 14.0174 0.568359Z" fill="#95A4F4"/>
<path d="M28.5609 12.3832C28.9225 12.3798 29.2782 12.4016 29.6386 12.4125L32.1738 12.5056C32.9269 12.5359 33.6795 12.5353 34.433 12.5759L30.2833 15.1384C30.0053 15.3046 29.7297 15.4748 29.4566 15.6489C29.0641 15.6239 28.6641 15.5534 28.2727 15.5058L26.1472 15.2536C25.7333 15.2022 25.3116 15.1311 24.8945 15.1175C25.5104 14.5986 26.1887 14.1339 26.8372 13.6564C27.4108 13.234 27.9725 12.7845 28.5609 12.3832Z" fill="#95A4F4"/>
<path d="M22.6795 0.663086C22.7496 0.852688 22.7388 2.40226 22.7479 2.72733C22.7827 3.97839 22.8541 5.23185 22.866 6.48367C22.7344 6.69546 22.5688 6.89682 22.4187 7.09668L21.6419 8.13512L20.6621 9.44739C20.4852 9.68321 20.3147 9.9389 20.1144 10.1551L20.0822 9.86135L19.7726 7.10856C19.717 6.6217 19.6843 6.11603 19.584 5.63701C19.7141 5.38151 19.8811 5.13858 20.0333 4.89552C20.3118 4.45911 20.5864 4.02034 20.8573 3.5792L22.0341 1.68084C22.2443 1.34314 22.4439 0.983168 22.6795 0.663086Z" fill="#95A4F4"/>
<path d="M7.00432 17.873C7.26508 17.8781 7.64406 17.9581 7.92063 17.9917L10.3187 18.2792C10.7272 18.3284 11.1499 18.4103 11.5604 18.4193C11.3358 18.6186 11.0726 18.7914 10.8314 18.9713L9.3793 20.0485L8.44069 20.7427C8.25736 20.8788 8.07213 21.0368 7.87199 21.1466C7.46062 21.1527 7.04919 21.1174 6.63746 21.117C5.92822 21.1196 5.21511 21.0582 4.50557 21.0373L2.90069 20.9921C2.6751 20.9854 2.44547 20.9928 2.22067 20.9757C2.16617 20.9716 2.11419 20.97 2.07031 20.9364C2.11817 20.8556 6.53151 18.1758 7.00432 17.873Z" fill="#95A4F4"/>
<path d="M29.1924 18.1611C29.2644 18.1511 29.3402 18.1505 29.4124 18.1455C29.6588 18.2751 29.8968 18.4493 30.1332 18.5978L31.5804 19.4995L33.3385 20.5924C33.6638 20.7942 34.0524 20.9861 34.3322 21.2442C32.8892 21.3048 31.4433 21.3053 30.0002 21.3611C29.4929 21.3698 28.9853 21.4069 28.4777 21.3917C28.182 21.2232 27.8088 20.8864 27.518 20.672C26.948 20.2532 26.3801 19.8314 25.8144 19.4068C25.4989 19.1709 25.1407 18.9413 24.8652 18.6601L29.1924 18.1611Z" fill="#95A4F4"/>
<path d="M19.8999 23.4551C20.0581 23.6208 20.1881 23.8247 20.325 24.0092L21.141 25.1156L22.1167 26.4282C22.287 26.6579 22.4781 26.887 22.6232 27.1337C22.6209 27.6455 22.5808 28.1614 22.561 28.6732L22.4726 31.6329C22.463 32.0731 22.4165 32.5073 22.4353 32.9494C22.3777 32.8906 22.3312 32.829 22.2842 32.7616L20.0476 29.127C19.8581 28.8142 19.4575 28.2727 19.3438 27.9582C19.4833 26.9991 19.5854 26.0288 19.6918 25.0652C19.7502 24.5375 19.7821 23.9726 19.8999 23.4551Z" fill="#95A4F4"/>
<path d="M30.1162 5.0459C30.1238 5.07729 30.1221 5.09604 30.1134 5.12715C30.0803 5.24665 29.5961 6.09587 29.498 6.27999L28.2673 8.55167C27.9972 9.05333 27.7413 9.56719 27.4553 10.0597C27.4227 10.1155 27.3898 10.1725 27.331 10.2034C26.8648 10.4481 26.3521 10.6328 25.8673 10.8404L23.211 11.973C23.1974 11.869 24.8119 8.15886 24.9928 7.79421C25.1746 7.67273 25.3808 7.57492 25.574 7.47201L26.5253 6.96506C27.7215 6.32681 28.9332 5.70769 30.1162 5.0459Z" fill="#95A4F4"/>
<path d="M13.23 21.5625L13.2455 21.5775C13.2439 21.5871 13.2425 21.5967 13.2407 21.6062C13.2102 21.7698 13.1033 21.9575 13.0366 22.1141L12.447 23.4685L11.846 24.8656C11.7347 25.1242 11.6311 25.3951 11.4988 25.6435C11.4686 25.7 11.4398 25.738 11.3852 25.7722C11.0534 25.9813 10.6932 26.1552 10.3474 26.34L8.55039 27.2981L7.14658 28.0499C6.88258 28.1917 6.61878 28.3484 6.34455 28.4691L6.33203 28.4557C6.33365 28.4331 6.33276 28.432 6.34028 28.4064C6.37928 28.2748 6.48322 28.1226 6.54937 27.9989L7.06276 27.0455C7.68815 25.8846 8.29805 24.71 8.94568 23.5614C8.98303 23.4951 9.02613 23.4097 9.08332 23.3589C9.22847 23.2298 10.5576 22.7044 10.8281 22.5893C11.6291 22.2485 12.4249 21.8936 13.23 21.5625Z" fill="#95A4F4"/>
<path d="M23.0176 21.7393C23.3995 21.8389 23.9957 22.1367 24.3814 22.3034C25.2277 22.6689 26.0792 23.0267 26.9204 23.4035C27.001 23.4396 27.1435 23.4914 27.2029 23.558C27.354 23.728 27.4658 24.0202 27.5739 24.222L28.4397 25.8399L29.4911 27.8098C29.6408 28.0925 29.8362 28.3879 29.9483 28.6845C29.6907 28.5931 29.4362 28.4283 29.1945 28.2985L27.7835 27.5372L25.8391 26.4883C25.4927 26.3018 25.1265 26.1273 24.7958 25.916C24.5363 25.3733 24.3193 24.8 24.0823 24.2462C23.7256 23.4124 23.3527 22.5818 23.0176 21.7393Z" fill="#95A4F4"/>
<path d="M16.3232 23.3809C16.39 23.7569 16.8633 27.839 16.8424 27.9249C16.8017 28.091 16.1114 29.1251 15.9706 29.3504L14.0967 32.3617C14.0281 32.4704 13.8816 32.7458 13.819 32.8277C13.8054 32.8456 13.7973 32.8495 13.7807 32.8606C13.753 32.8297 13.7511 32.7976 13.7466 32.7564C13.7308 32.6145 13.7364 32.4659 13.7308 32.3229L13.7021 31.364L13.635 28.9155C13.6286 28.7126 13.6568 28.4656 13.6203 28.27C13.6179 28.253 13.6157 28.236 13.6138 28.2189C13.5992 28.0907 13.562 27.1304 13.5782 27.0602C13.5878 27.019 13.6115 26.9897 13.6373 26.9574L15.5553 24.3916L16.041 23.7455C16.1312 23.6248 16.2165 23.4866 16.3232 23.3809Z" fill="#95A4F4"/>
<path d="M6.5 4.8291C6.77808 4.96496 7.0469 5.12488 7.31979 5.27113C7.9042 5.58017 8.48648 5.89317 9.06663 6.21014L10.6399 7.05491C10.9369 7.21569 11.2413 7.37128 11.5292 7.54792C11.5787 7.5783 11.6334 7.61005 11.6615 7.66282C11.8436 8.00515 11.9855 8.37295 12.1363 8.7303L12.7619 10.1999L13.1877 11.1911C13.2751 11.3924 13.3816 11.5964 13.4391 11.8079C13.3931 11.7969 13.3523 11.7819 13.3085 11.7639C12.3433 11.369 11.3913 10.9348 10.4348 10.5189L9.66662 10.1855C9.54286 10.1316 9.38568 10.0809 9.27621 10.0022C9.2215 9.96277 9.17815 9.87697 9.14431 9.81785C8.62061 8.90301 8.1539 7.94803 7.65495 7.01856C7.39228 6.53928 7.13311 6.05812 6.87745 5.57508C6.74764 5.32934 6.60776 5.08538 6.5 4.8291Z" fill="#95A4F4"/>
</g>
<g clip-path="url(#clip1_494_1305)">
<path d="M114.597 0.357772C115.317 0.249799 116.029 0.256535 116.657 0.669462C117.179 1.01327 117.524 1.55624 117.645 2.16688C117.767 2.77855 117.674 3.45022 117.318 3.97101C116.978 4.46932 116.487 4.74796 115.904 4.86049C115.451 4.98618 114.881 4.94131 114.436 4.79635C113.912 4.62558 113.466 4.2626 113.217 3.76781C112.924 3.18557 112.89 2.47359 113.095 1.85788C113.353 1.07814 113.895 0.711117 114.597 0.357772Z" fill="white"/>
<path d="M88.3391 0.338264C88.9024 0.253814 89.5729 0.3622 90.0587 0.665393C90.5619 0.979466 90.8883 1.47943 91.0182 2.05401C91.1623 2.69107 91.0792 3.40356 90.7226 3.95886C90.3583 4.52629 89.8301 4.79176 89.1891 4.93476C88.5148 4.98076 87.8868 4.94336 87.3111 4.55426C87.2808 4.5334 87.2511 4.51178 87.2219 4.4894C87.1927 4.46708 87.164 4.44405 87.136 4.42028C87.1079 4.39659 87.0804 4.37217 87.0535 4.34702C87.0266 4.32195 87.0004 4.29621 86.9748 4.26982C86.9491 4.24351 86.9242 4.21653 86.8999 4.1889C86.8756 4.16127 86.852 4.13308 86.8292 4.10434C86.8062 4.07561 86.784 4.04632 86.7625 4.01647C86.7411 3.98656 86.7204 3.9562 86.7004 3.92539C86.6804 3.89451 86.6612 3.86315 86.6428 3.8313C86.6244 3.79953 86.6068 3.7673 86.5899 3.73463C86.5731 3.70195 86.557 3.66886 86.5417 3.63536C86.5265 3.60192 86.5121 3.56811 86.4985 3.53391C86.485 3.49979 86.4723 3.46532 86.4604 3.4305C86.4485 3.39575 86.4375 3.3607 86.4273 3.32533C86.4172 3.29003 86.4079 3.25445 86.3996 3.2186C86.3911 3.18281 86.3836 3.14686 86.377 3.11073C86.2571 2.48911 86.3532 1.80076 86.7174 1.27344C87.1211 0.688708 87.6633 0.460018 88.3391 0.338264Z" fill="white"/>
<path d="M113.305 8.70179C114.005 8.49414 116.26 8.65153 117.122 8.65692C117.14 8.6849 117.153 8.70832 117.165 8.73941C117.328 9.16083 117.299 25.0582 117.227 26.7264C117.22 26.8766 117.189 26.9983 117.128 27.1354C116.816 27.2962 113.939 27.1794 113.313 27.1776C113.331 27.1497 113.344 27.1279 113.355 27.0965C113.506 26.6468 113.432 10.7583 113.404 9.21844C113.401 9.02685 113.384 8.8795 113.305 8.70179Z" fill="white"/>
<path d="M181.966 31.0356C181.562 31.5797 179.098 32.3147 178.42 32.5002C173.939 33.7268 169.372 33.1966 165.344 30.8956C163.367 29.7663 161.784 28.2561 160.351 26.5077C160.051 26.1432 159.627 25.7174 159.502 25.2579C159.732 24.7137 161.603 23.9644 162.141 23.5008L162.17 23.4756C162.675 23.7565 163.154 24.6035 163.532 25.0712C165.466 27.4667 167.899 29.072 170.908 29.8034C173.463 30.4243 175.844 30.314 178.349 29.5462C178.967 29.3571 179.674 29.1551 180.228 28.8171C180.631 28.9762 181.763 30.4242 181.935 30.8592C181.956 30.9139 181.963 30.9776 181.966 31.0356Z" fill="#EAB711"/>
<path d="M86.7773 8.64542C88.0649 8.65903 89.3524 8.65841 90.6399 8.64355C90.7072 14.8161 90.6346 21 90.6217 27.1734L86.7791 27.1722L86.7773 8.64542Z" fill="white"/>
<path d="M173.959 0.20588C175.056 0.107234 176.369 0.32722 177.451 0.549382C177.582 0.576116 177.713 0.604473 177.843 0.634454C177.973 0.664435 178.103 0.69597 178.232 0.729059C178.362 0.762217 178.491 0.796931 178.62 0.833198C178.748 0.869465 178.876 0.907287 179.004 0.946662C179.132 0.986107 179.26 1.02707 179.387 1.06956C179.513 1.11211 179.639 1.15618 179.765 1.20178C179.891 1.24737 180.016 1.29448 180.14 1.34311C180.264 1.39175 180.388 1.4419 180.512 1.49357C180.635 1.54524 180.757 1.5984 180.88 1.65304C181.002 1.70775 181.123 1.76392 181.243 1.82153C181.364 1.87914 181.484 1.9382 181.603 1.99872C181.723 2.0593 181.841 2.1213 181.958 2.18472C182.077 2.2482 182.194 2.31307 182.31 2.37932C182.426 2.44563 182.541 2.51333 182.655 2.58241C182.769 2.65156 182.883 2.72206 182.996 2.7939C183.108 2.86575 183.22 2.93897 183.331 3.01358C183.442 3.08818 183.552 3.16414 183.661 3.24144C183.77 3.31874 183.878 3.39735 183.985 3.47728C184.092 3.5572 184.199 3.63844 184.304 3.72099C184.409 3.80347 184.513 3.88727 184.616 3.97238C184.719 4.05741 184.821 4.14369 184.922 4.23122C185.024 4.31881 185.124 4.40758 185.222 4.49752C185.321 4.58753 185.419 4.67872 185.516 4.77108C185.612 4.86351 185.708 4.95708 185.802 5.05179C185.896 5.14643 185.99 5.24224 186.082 5.33923C186.173 5.43622 186.264 5.53431 186.354 5.63351C186.443 5.73271 186.531 5.83298 186.618 5.93432C186.705 6.03566 186.791 6.13807 186.876 6.24155C186.961 6.34497 187.044 6.44942 187.126 6.5549C187.208 6.66039 187.289 6.76688 187.368 6.87437C187.448 6.98179 187.526 7.09017 187.603 7.19953C187.68 7.30888 187.756 7.41917 187.83 7.53039C187.904 7.64457 187.977 7.75966 188.049 7.87565C188.12 7.99163 188.191 8.10852 188.26 8.2263C188.328 8.34401 188.395 8.46255 188.462 8.58192C188.527 8.70129 188.592 8.82146 188.654 8.94242C188.717 9.06338 188.779 9.1851 188.839 9.30758C188.899 9.43006 188.957 9.55323 189.014 9.67709C189.071 9.80102 189.126 9.9256 189.18 10.0508C189.234 10.1762 189.286 10.3021 189.337 10.4286C189.388 10.5552 189.437 10.6823 189.484 10.8101C189.532 10.9379 189.578 11.0662 189.622 11.195C189.667 11.3239 189.71 11.4533 189.751 11.5833C189.792 11.7132 189.832 11.8437 189.87 11.9747C189.908 12.1056 189.944 12.2369 189.98 12.3687C190.014 12.5005 190.047 12.6328 190.079 12.7654C190.11 12.898 190.14 13.031 190.168 13.1643C190.197 13.2977 190.223 13.4314 190.248 13.5654C190.274 13.6995 190.297 13.8338 190.319 13.9684C190.34 14.103 190.36 14.2378 190.379 14.373C190.397 14.508 190.413 14.6433 190.428 14.7787C190.444 14.9143 190.457 15.0499 190.469 15.1857C190.481 15.3216 190.491 15.4575 190.499 15.5936C190.507 15.7297 190.514 15.8658 190.519 16.0021C190.524 16.1383 190.528 16.2746 190.529 16.411C190.53 16.5473 190.53 16.6835 190.529 16.8198C190.527 16.9562 190.523 17.0925 190.519 17.2287C190.514 17.365 190.507 17.5011 190.499 17.6372C190.49 17.7732 190.479 17.9091 190.468 18.0449C190.456 18.1808 190.443 18.3165 190.428 18.452C190.413 18.5874 190.396 18.7227 190.378 18.8578C190.359 18.9929 190.339 19.1277 190.318 19.2623C190.296 19.3969 190.273 19.5312 190.247 19.6653C190.222 19.7993 190.196 19.9329 190.167 20.0663C189.733 22.159 188.87 23.9481 187.725 25.7395C187.478 26.1254 187.184 26.6823 186.8 26.9343C186.78 27.0493 186.713 27.1087 186.636 27.1895C186.029 27.1618 185.238 25.6829 184.685 25.3117C184.755 25.2718 184.813 25.2274 184.87 25.1711C185.474 24.5828 185.923 23.8103 186.323 23.0753C187.478 20.9515 188.117 18.9528 188.151 16.5204C188.206 12.6508 186.858 9.02345 184.141 6.24031C184.058 6.15507 183.974 6.07089 183.889 5.98779C183.804 5.90462 183.718 5.82252 183.631 5.74148C183.544 5.66045 183.456 5.58053 183.367 5.50171C183.278 5.42289 183.187 5.34517 183.096 5.26856C183.006 5.19195 182.914 5.11648 182.821 5.04215C182.728 4.96782 182.634 4.89466 182.54 4.82268C182.445 4.7507 182.349 4.67989 182.253 4.61026C182.157 4.54063 182.06 4.4722 181.962 4.40499C181.863 4.33777 181.764 4.27177 181.664 4.20697C181.565 4.14224 181.464 4.07872 181.363 4.01641C181.261 3.95417 181.159 3.89317 181.057 3.83342C180.954 3.77367 180.85 3.71522 180.746 3.65809C180.642 3.6009 180.537 3.54501 180.431 3.49044C180.325 3.43586 180.219 3.3826 180.112 3.33065C180.005 3.27871 179.897 3.2281 179.789 3.17885C179.681 3.1296 179.572 3.08169 179.462 3.03513C179.353 2.98857 179.243 2.94336 179.133 2.89949C179.022 2.85562 178.911 2.81317 178.799 2.77214C178.687 2.73104 178.575 2.69132 178.462 2.65298C178.35 2.61471 178.237 2.57782 178.123 2.54231C178.01 2.5068 177.896 2.47271 177.782 2.44004C177.668 2.40736 177.553 2.3761 177.438 2.34626C177.322 2.31642 177.207 2.28803 177.091 2.26108C176.975 2.23407 176.859 2.20852 176.742 2.18441C176.626 2.16037 176.509 2.13774 176.392 2.11654C176.275 2.09533 176.158 2.07557 176.041 2.05726C175.923 2.03903 175.805 2.02221 175.687 2.0068C175.569 1.99147 175.451 1.97758 175.333 1.96515C175.215 1.95264 175.096 1.94166 174.978 1.93219C174.859 1.92266 174.74 1.91461 174.621 1.90805C174.502 1.90149 174.383 1.89641 174.265 1.89282C174.146 1.88923 174.027 1.88709 173.908 1.88639C174.122 1.4916 174.053 0.638806 173.959 0.20588Z" fill="#EAB711"/>
<path d="M94.3147 0.509001C95.537 0.384138 96.8496 0.483303 98.0801 0.489106C98.0976 0.5147 98.1137 0.539051 98.1279 0.566614C98.2383 0.782144 98.2966 16.7808 98.1223 17.3346C98.1686 17.313 98.2148 17.2893 98.257 17.2604C98.7648 16.9123 100.52 14.5995 101.082 13.9297C102.49 12.2505 103.998 10.6098 105.337 8.87738C105.384 8.81593 105.404 8.74568 105.418 8.67014L110.066 8.67843C110.064 8.7091 110.061 8.73925 110.051 8.76868C109.952 9.06866 102.685 17.1345 102.318 17.3337C102.711 17.554 108.087 23.4387 108.212 23.7977C108.562 23.9921 111.235 26.8941 111.338 27.1815C109.738 27.1609 108.136 27.1776 106.536 27.1759C106.533 27.1634 106.531 27.1507 106.528 27.1383C106.497 27.0019 98.5456 17.7523 98.0925 17.4829C98.1198 17.5454 98.1428 17.6079 98.1592 17.6741C98.336 18.3905 98.2021 20.3096 98.2031 21.1547C98.2054 23.0258 98.3196 24.969 98.1967 26.8328C98.1881 26.9628 98.1487 27.065 98.0816 27.1761L94.2656 27.1743C94.3887 26.9674 94.3822 26.7808 94.3862 26.5489C94.4766 21.4413 94.3479 16.3168 94.3795 11.2071L94.3626 3.75833C94.361 2.85258 94.5137 1.30429 94.3147 0.509001Z" fill="white"/>
<path d="M125.468 0.281882C128.727 0.250589 131.986 0.236704 135.246 0.240227C137.351 0.24002 139.487 0.1622 141.583 0.367472C141.597 0.398973 141.609 0.42923 141.621 0.46156C141.748 0.818532 141.746 4.56264 141.571 4.93163L133.052 4.94303C133.1 5.02189 133.138 5.10302 133.16 5.19348C133.317 5.85199 133.189 9.30296 133.189 10.2895C133.189 14.7269 133.284 19.1821 133.189 23.6173C133.184 23.8326 133.176 23.9889 133.06 24.1767C133.108 24.2457 133.145 24.3191 133.161 24.4023C133.267 24.9341 133.335 26.6539 133.057 27.0942L127.97 27.0914C128.009 27.0326 128.042 26.9702 128.06 26.9016C128.22 26.2936 128.097 21.6165 128.097 20.6381L128.101 10.75C128.103 8.97666 128.158 7.18994 128.101 5.41855C128.095 5.23369 128.074 5.10261 127.977 4.94117C125.145 4.91174 122.309 4.93879 119.477 4.94148C119.508 4.89475 119.535 4.84864 119.555 4.79579C119.723 4.36007 119.675 0.72403 119.494 0.328925C121.484 0.280431 123.478 0.292037 125.468 0.281882Z" fill="#95A4F4"/>
<path d="M178.227 26.1307C176.124 27.1938 172.932 27.089 170.736 26.3666C167.906 25.4355 165.566 23.3029 164.235 20.6535C164.195 20.5735 164.156 20.4931 164.118 20.4122C164.081 20.3313 164.044 20.2499 164.008 20.1681C163.972 20.0863 163.937 20.004 163.904 19.9213C163.869 19.8387 163.836 19.7555 163.804 19.672C163.772 19.5885 163.742 19.5047 163.712 19.4204C163.682 19.3362 163.653 19.2515 163.626 19.1666C163.598 19.0816 163.572 18.9963 163.546 18.9107C163.52 18.8251 163.496 18.7392 163.472 18.653C163.449 18.5668 163.427 18.4803 163.405 18.3936C163.384 18.3068 163.363 18.2198 163.344 18.1324C163.325 18.0452 163.307 17.9577 163.29 17.87C163.273 17.7823 163.257 17.6944 163.242 17.6063C163.227 17.5182 163.213 17.4299 163.201 17.3415C163.188 17.253 163.176 17.1644 163.166 17.0757C163.155 16.987 163.146 16.8982 163.138 16.8092C163.129 16.7202 163.122 16.6312 163.116 16.5421C163.11 16.4529 163.105 16.3637 163.1 16.2744C163.097 16.1852 163.094 16.0959 163.092 16.0066C163.09 15.9172 163.089 15.8279 163.09 15.7385C163.091 15.6492 163.093 15.5599 163.095 15.4705C163.097 15.3812 163.101 15.2919 163.106 15.2027C163.11 15.1135 163.117 15.0244 163.124 14.9353C163.131 14.8462 163.139 14.7573 163.148 14.6684C163.157 14.5795 163.167 14.4907 163.179 14.4021C163.191 14.3135 163.203 14.225 163.217 14.1367C163.23 14.0485 163.245 13.9603 163.261 13.8723C163.276 13.7844 163.293 13.6966 163.311 13.6091C163.329 13.5216 163.348 13.4343 163.368 13.3472C163.388 13.2601 163.409 13.1733 163.432 13.0868C163.454 13.0002 163.477 12.9139 163.501 12.828C163.526 12.742 163.551 12.6563 163.577 12.5709C163.604 12.4856 163.632 12.4006 163.66 12.3159C163.688 12.2296 163.718 12.1436 163.749 12.0579C163.78 11.9723 163.811 11.8871 163.844 11.8022C163.877 11.7173 163.911 11.6329 163.946 11.5489C163.981 11.4649 164.016 11.3813 164.054 11.2982C164.09 11.215 164.128 11.1323 164.167 11.0501C164.206 10.9679 164.246 10.8862 164.287 10.8049C164.328 10.7237 164.369 10.643 164.412 10.5628C164.456 10.4826 164.5 10.4029 164.545 10.3238C164.59 10.2447 164.635 10.1661 164.682 10.0881C164.729 10.0101 164.777 9.93269 164.826 9.85587C164.874 9.77905 164.923 9.70282 164.974 9.62718C165.025 9.55161 165.077 9.47666 165.129 9.40233C165.181 9.32793 165.234 9.25422 165.289 9.1812C165.343 9.10818 165.399 9.03582 165.455 8.96412C165.511 8.89241 165.567 8.82143 165.625 8.75118C165.683 8.68085 165.741 8.61129 165.801 8.54249C165.86 8.47361 165.921 8.4055 165.982 8.33815C166.043 8.27072 166.105 8.2041 166.168 8.13826C166.23 8.07243 166.294 8.00736 166.358 7.94304C166.423 7.87873 166.488 7.81524 166.554 7.75259C166.62 7.68986 166.686 7.62797 166.754 7.5669C166.821 7.5059 166.889 7.4457 166.958 7.38629C167.027 7.32688 167.097 7.26833 167.168 7.21065C167.238 7.15297 167.309 7.09619 167.381 7.0403C167.453 6.98435 167.525 6.92929 167.598 6.87513C167.671 6.82097 167.745 6.76771 167.819 6.71535C167.894 6.66305 167.969 6.61162 168.044 6.56106C168.12 6.51056 168.197 6.46099 168.273 6.41236C168.351 6.36373 168.428 6.31606 168.506 6.26937C168.584 6.2226 168.663 6.17683 168.742 6.13207C168.821 6.08724 168.901 6.0434 168.981 6.00058C169.061 5.95775 169.142 5.91588 169.223 5.87499C171.773 4.59963 174.985 4.35622 177.693 5.2601C177.78 5.28905 177.866 5.31899 177.952 5.34994C178.038 5.38096 178.123 5.41301 178.208 5.4461C178.293 5.47919 178.378 5.51332 178.462 5.54848C178.546 5.58364 178.63 5.61981 178.714 5.65697C178.798 5.69414 178.88 5.73234 178.963 5.77157C179.045 5.81074 179.127 5.85091 179.208 5.89208C179.29 5.93333 179.371 5.97553 179.452 6.01871C179.532 6.06182 179.612 6.10592 179.691 6.15103C179.771 6.19614 179.849 6.24222 179.927 6.28926C180.005 6.3363 180.083 6.38428 180.161 6.43319C180.237 6.4821 180.314 6.53194 180.39 6.58271C180.465 6.63349 180.541 6.68516 180.615 6.73773C180.69 6.79037 180.764 6.84387 180.837 6.89824C180.91 6.95267 180.983 7.00797 181.055 7.06413C181.127 7.1203 181.199 7.17732 181.269 7.23521C181.34 7.2931 181.409 7.35185 181.479 7.41147C181.548 7.47102 181.616 7.53143 181.684 7.5927C181.751 7.65398 181.818 7.71604 181.885 7.77891C181.95 7.84184 182.016 7.90553 182.081 7.96998C182.145 8.0345 182.209 8.09975 182.272 8.16572C182.335 8.23176 182.397 8.29856 182.459 8.36612C182.52 8.43368 182.581 8.50197 182.64 8.57098C182.7 8.63999 182.758 8.70973 182.816 8.78019C182.874 8.85065 182.932 8.92177 182.988 8.99354C183.044 9.06539 183.1 9.13792 183.154 9.21115C183.209 9.2843 183.263 9.35815 183.316 9.43269C183.368 9.50715 183.42 9.58225 183.471 9.65796C183.522 9.73374 183.571 9.81011 183.62 9.88706C183.669 9.96402 183.718 10.0416 183.765 10.1197C183.812 10.1979 183.858 10.2766 183.903 10.3558C183.949 10.4351 183.993 10.5149 184.037 10.5952C184.08 10.6755 184.122 10.7564 184.163 10.8378C184.203 10.9187 184.243 11.0001 184.281 11.082C184.319 11.1639 184.357 11.2462 184.393 11.3289C184.43 11.4118 184.465 11.495 184.499 11.5787C184.534 11.6623 184.567 11.7464 184.599 11.8308C184.631 11.9153 184.662 12.0001 184.693 12.0854C184.723 12.1705 184.752 12.2561 184.78 12.342C184.808 12.428 184.835 12.5143 184.861 12.6009C184.887 12.6874 184.912 12.7743 184.936 12.8616C184.96 12.9488 184.983 13.0362 185.005 13.124C185.026 13.2118 185.047 13.2998 185.066 13.388C185.086 13.4763 185.105 13.5648 185.122 13.6535C185.139 13.7422 185.155 13.8311 185.171 13.9202C185.186 14.0093 185.2 14.0986 185.213 14.188C185.226 14.2775 185.238 14.3671 185.249 14.4568C185.26 14.5466 185.27 14.6364 185.278 14.7264C185.287 14.8164 185.295 14.9064 185.301 14.9966C185.308 15.0868 185.314 15.1771 185.318 15.2673C185.322 15.3576 185.325 15.448 185.327 15.5383C185.329 15.6287 185.33 15.7191 185.33 15.8095C185.33 15.8999 185.329 15.9903 185.327 16.0807C185.324 16.171 185.321 16.2613 185.317 16.3516C185.312 16.4419 185.306 16.5321 185.299 16.6223C185.293 16.7124 185.285 16.8025 185.276 16.8925C185.267 16.9825 185.257 17.0723 185.246 17.162C185.235 17.2517 185.223 17.3413 185.209 17.4307C185.196 17.5201 185.182 17.6094 185.166 17.6985C185.151 17.7875 185.134 17.8764 185.117 17.9651C185.099 18.0537 185.08 18.1421 185.061 18.2304C185.041 18.3186 185.02 18.4065 184.998 18.4942C184.975 18.5819 184.953 18.6693 184.929 18.7564C184.905 18.8436 184.88 18.9305 184.853 19.0169C184.827 19.1035 184.8 19.1897 184.772 19.2756C184.454 20.2111 183.481 22.4788 182.603 22.9421C182.524 22.499 180.181 19.7186 179.777 19.4354C179.755 19.42 179.734 19.4057 179.711 19.3914C180.502 18.6575 180.832 17.128 180.872 16.0956C180.877 15.9862 180.88 15.8767 180.88 15.7671C180.879 15.6575 180.875 15.5481 180.869 15.4387C180.864 15.3293 180.855 15.2201 180.843 15.1112C180.832 15.0022 180.818 14.8937 180.801 14.7854C180.784 14.6772 180.765 14.5694 180.743 14.4621C180.721 14.3548 180.696 14.2482 180.668 14.1421C180.641 14.0361 180.61 13.9308 180.577 13.8263C180.545 13.7218 180.509 13.6182 180.471 13.5154C180.433 13.4126 180.393 13.3109 180.349 13.2102C180.306 13.1094 180.261 13.0099 180.212 12.9114C180.165 12.813 180.114 12.7158 180.061 12.6199C180.008 12.524 179.953 12.4295 179.895 12.3363C179.837 12.2431 179.777 12.1515 179.715 12.0613C179.653 11.9712 179.589 11.8826 179.522 11.7956C179.455 11.7087 179.386 11.6235 179.315 11.54C179.245 11.4566 179.172 11.3749 179.096 11.2951C177.898 10.0076 176.219 9.19125 174.452 9.13913C174.342 9.13568 174.231 9.13495 174.12 9.13695C174.01 9.13889 173.899 9.14359 173.789 9.15105C173.678 9.15844 173.568 9.16856 173.458 9.18141C173.349 9.19426 173.239 9.2098 173.13 9.22804C173.021 9.24627 172.912 9.26721 172.803 9.29083C172.696 9.31439 172.588 9.3406 172.481 9.36948C172.375 9.39835 172.269 9.42985 172.163 9.46398C172.058 9.49804 171.954 9.53468 171.85 9.57392C171.747 9.61316 171.644 9.65492 171.543 9.6992C171.442 9.74348 171.341 9.79025 171.242 9.8395C171.143 9.88869 171.045 9.94029 170.949 9.99431C170.853 10.0483 170.758 10.1047 170.664 10.1634C170.57 10.2221 170.478 10.2831 170.387 10.3464C170.296 10.4097 170.207 10.4751 170.12 10.5428C170.032 10.6104 169.946 10.6802 169.862 10.7521C169.777 10.8239 169.695 10.8978 169.615 10.9737C169.536 11.0496 169.459 11.1274 169.384 11.2071C169.309 11.2867 169.236 11.3682 169.165 11.4514C169.094 11.5347 169.025 11.6196 168.958 11.7063C168.891 11.793 168.826 11.8812 168.763 11.971C168.701 12.0608 168.641 12.1521 168.583 12.2448C168.525 12.3376 168.469 12.4318 168.415 12.5273C168.362 12.6228 168.311 12.7195 168.263 12.8175C168.214 12.9156 168.167 13.0147 168.124 13.115C168.08 13.2153 168.038 13.3167 168 13.419C167.961 13.5213 167.925 13.6245 167.891 13.7286C167.857 13.8327 167.826 13.9375 167.797 14.0432C167.768 14.1488 167.742 14.2551 167.719 14.362C167.695 14.4689 167.675 14.5764 167.657 14.6843C167.639 14.7922 167.623 14.9005 167.61 15.0092C167.598 15.1179 167.588 15.2268 167.58 15.336C167.572 15.4452 167.568 15.5545 167.565 15.6639C167.524 17.4896 168.235 19.1603 169.498 20.4672C169.573 20.544 169.649 20.6188 169.727 20.6919C169.805 20.7648 169.885 20.8358 169.966 20.9048C170.048 20.9738 170.131 21.0408 170.216 21.1057C170.301 21.1706 170.387 21.2333 170.475 21.2939C170.564 21.3545 170.653 21.4129 170.743 21.469C170.835 21.5252 170.927 21.5791 171.02 21.6307C171.114 21.6823 171.209 21.7315 171.305 21.7783C171.401 21.8252 171.498 21.8697 171.596 21.9118C171.694 21.9539 171.794 21.9934 171.894 22.0305C171.995 22.0677 172.096 22.1023 172.197 22.1345C172.3 22.1666 172.402 22.1962 172.505 22.2232C172.609 22.2502 172.713 22.2746 172.818 22.2965C172.922 22.3184 173.027 22.3376 173.133 22.3542C173.239 22.3709 173.344 22.3849 173.45 22.3963C173.556 22.4077 173.663 22.4165 173.77 22.4226C173.877 22.4287 173.983 22.4322 174.09 22.433C174.505 22.4392 174.915 22.4105 175.321 22.3296C175.298 22.09 172.157 17.8506 171.752 17.5082C171.72 17.4807 171.683 17.4563 171.647 17.4334C173.219 17.3576 174.907 17.5537 176.452 17.3184C176.818 17.5327 185.331 28.1433 185.464 28.5556C185.475 28.5897 185.473 28.6108 185.47 28.646C185.237 29.1728 182.766 30.7521 182.166 30.9846C182.101 31.0096 182.035 31.0267 181.967 31.0361C181.964 30.978 181.957 30.9143 181.936 30.8596C181.764 30.4246 180.632 28.9766 180.229 28.8176C180.248 28.5161 178.742 26.6483 178.45 26.3171C178.385 26.2445 178.307 26.1854 178.227 26.1307Z" fill="#95A4F4"/>
<path d="M148.342 4.75695C150.416 4.59623 152.793 4.85311 154.699 5.73077C157.008 6.79443 158.586 8.62116 159.456 10.9899C159.968 12.38 160.576 16.5121 160.012 17.7349C157.209 17.6864 154.399 17.7227 151.595 17.7237C148.892 17.7246 146.184 17.6879 143.482 17.7471C143.681 17.9558 143.747 18.2583 143.846 18.5238C144.229 19.5497 144.768 20.4318 145.699 21.0493C147.482 22.2321 149.797 22.3822 151.848 21.9692C152.951 21.7471 154.842 21.1993 155.478 20.2442C155.733 20.3748 156.059 20.6375 156.157 20.9145C156.635 21.1878 158.628 23.1103 158.775 23.5408C158.766 23.5884 158.758 23.6187 158.729 23.6583C157.489 25.3189 153.787 26.5444 151.78 26.7941C148.469 27.2059 144.881 26.6887 142.195 24.5956C139.941 22.8389 138.69 20.2853 138.347 17.477C137.979 14.4563 138.553 11.161 140.465 8.72467C142.489 6.14432 145.176 5.13744 148.342 4.75695ZM149.335 9.30837C147.578 9.46535 145.933 9.98926 144.761 11.3811C144.3 11.9276 143.938 13.0997 143.605 13.4011L149.341 13.3881L155.033 13.3908C155.102 12.6319 154.641 11.6831 154.164 11.1152C153.238 10.0109 151.81 9.46152 150.401 9.34463C150.054 9.31583 149.683 9.2951 149.335 9.30837Z" fill="#95A4F4"/>
<path d="M62.9741 0.462156L65.7047 0.451172C66.1045 1.34044 66.3785 2.30877 66.6968 3.23162L68.3277 7.91443C69.9013 12.441 71.5493 16.9643 73.0285 21.521L79.7097 0.463503L84.4908 0.468995C84.2552 1.30407 83.9067 2.13086 83.611 2.9479L78.1123 18.283C77.0406 21.2332 75.8678 24.1793 74.9183 27.1696L71.1134 27.1761C69.9022 24.2269 68.6578 21.2194 67.6 18.2129C66.4857 15.0455 65.5385 11.8181 64.3745 8.66691C63.8689 10.4503 63.2314 12.2166 62.6538 13.9788C62.0664 15.7713 61.5253 17.5991 60.8589 19.3633C59.8728 21.974 58.753 24.5427 57.8249 27.174L54.0282 27.172L44.2285 0.470653L49.0125 0.465887L55.9306 21.4766C56.4924 19.6113 57.1839 17.7741 57.8008 15.9251L62.9741 0.462156Z" fill="white"/>
</g>
<defs>
<clipPath id="clip0_494_1305">
<rect width="36.8296" height="33.4036" fill="white"/>
</clipPath>
<clipPath id="clip1_494_1305">
<rect width="147.318" height="33.4036" fill="white" transform="translate(43.6816)"/>
</clipPath>
</defs>
</svg>
