<svg width="206" height="36" viewBox="0 0 206 36" fill="none" xmlns="http://www.w3.org/2000/svg">
<g clip-path="url(#clip0_234_621)">
<path d="M14.7169 26.1855L14.7216 26.2135C14.7387 26.3186 14.7409 26.3863 14.7094 26.4881L14.7325 26.4989C14.8188 26.4457 14.8868 26.3225 14.9758 26.2936L14.9806 26.3195C14.8853 26.4553 14.7189 26.5858 14.5996 26.7049C14.6271 26.5278 14.6638 26.3567 14.7169 26.1855Z" fill="#344BBD"/>
<path d="M14.7145 26.1857C14.788 25.7443 14.922 25.3031 15.025 24.8669C15.1292 24.4259 15.2106 23.9686 15.3374 23.5342C15.3621 23.4494 15.3906 23.3623 15.4448 23.2913C15.6151 23.0681 16.0362 22.7985 16.2739 22.6155L17.5599 21.6211C17.4225 22.2373 17.3455 22.867 17.256 23.4916C17.2255 23.7046 17.2197 24.0569 17.1414 24.2478C17.0816 24.3937 15.217 26.1375 14.9783 26.3197L14.9734 26.2938C14.8845 26.3227 14.8165 26.4458 14.7302 26.499L14.707 26.4882C14.7386 26.3865 14.7364 26.3188 14.7193 26.2137L14.7145 26.1857Z" fill="#EAB711"/>
<path d="M28.1876 13.3288C28.2316 13.3216 28.2336 13.3152 28.2762 13.3349C28.272 13.3446 28.2694 13.3552 28.2636 13.3642C28.1963 13.4687 28.0513 13.5805 27.9629 13.6711L27.1741 14.4906C26.939 14.7372 26.1533 15.6191 25.9262 15.7556C25.7068 15.8875 23.7538 16.0644 23.3418 16.1315C23.2961 16.1363 23.2889 16.1452 23.248 16.1205C23.2601 16.0974 23.2623 16.0917 23.2795 16.0674C23.4463 15.8315 23.6639 15.6084 23.8468 15.3825C24.1522 15.0055 24.4472 14.6042 24.7724 14.2451C24.8304 14.1811 24.8945 14.1224 24.9685 14.0773C25.2187 13.9243 26.1748 13.776 26.5073 13.7033L28.1876 13.3288Z" fill="#EAB711"/>
<path d="M19.8453 8.19727C19.9297 8.31064 20.7493 11.1907 20.8067 11.5142C20.6973 11.831 20.5538 12.1401 20.4239 12.4491C20.2104 12.9609 19.994 13.4715 19.7747 13.9809C19.5844 13.5537 19.4325 13.1002 19.2644 12.6628C19.1137 12.2703 18.9314 11.8704 18.8203 11.4657C18.896 11.1051 19.043 10.739 19.1549 10.387L19.8453 8.19727Z" fill="#EAB711"/>
<path d="M26.1848 17.2367C26.2246 17.2357 26.2586 17.2362 26.2974 17.2469C26.8347 17.3951 27.3669 17.5832 27.9011 17.7449C28.4386 17.9077 28.991 18.0465 29.5212 18.2301C29.165 18.3692 28.7886 18.464 28.4216 18.5711L26.8356 19.0409C26.6955 19.0833 26.5557 19.1273 26.4153 19.1679C26.3317 19.1921 26.2355 19.2149 26.1482 19.199C25.8792 19.1501 25.5906 18.9894 25.3353 18.8872C24.7983 18.6723 24.2112 18.4865 23.707 18.2072C24.0476 18.1016 24.3779 17.9564 24.7089 17.824L26.1848 17.2367Z" fill="#EAB711"/>
<path d="M19.5114 22.1865C19.61 22.2948 20.3564 24.3126 20.4851 24.636C20.4341 24.9868 20.1686 25.6752 20.0482 26.0469C19.8475 26.6663 19.6792 27.3172 19.4337 27.9199L19.4205 27.9229C19.3669 27.8667 19.2298 27.2776 19.1961 27.1553C18.9688 26.3208 18.7283 25.4901 18.4746 24.6633C18.5683 24.3547 18.7203 24.049 18.8451 23.7505C19.0635 23.228 19.276 22.7017 19.5114 22.1865Z" fill="#EAB711"/>
<path d="M12.987 17.0786C13.0328 17.0749 13.0781 17.082 13.1215 17.0965C13.5354 17.2347 13.9463 17.4323 14.352 17.5957C14.7489 17.7555 15.1752 17.8879 15.5536 18.0867C14.7037 18.4066 13.8624 18.7458 13.0185 19.0815C12.8419 19.0344 12.668 18.9705 12.4944 18.9131C11.577 18.6195 10.6419 18.3743 9.73242 18.0561C10.8222 17.7573 11.9029 17.3996 12.987 17.0786Z" fill="#EAB711"/>
<path d="M16.0475 19.9741L16.053 20.0064C16.0339 20.0378 16.0138 20.068 15.9916 20.0974C15.8047 20.3443 14.5073 21.9636 14.3585 22.058C14.28 22.1079 14.1604 22.1352 14.0707 22.1584C13.4873 22.3087 12.8861 22.4122 12.2972 22.5422C11.8764 22.635 11.4387 22.7733 11.0117 22.8231L11.0187 22.7784C11.3651 22.3799 11.7567 22.0118 12.1239 21.6323C12.4913 21.2527 12.8498 20.8451 13.2388 20.4886C13.291 20.4408 13.349 20.3893 13.4158 20.3633C13.6777 20.2615 14.0761 20.253 14.3636 20.2165C14.9271 20.1451 15.4891 20.0798 16.0475 19.9741Z" fill="#EAB711"/>
<path d="M24.6396 9.62842C24.655 9.64437 24.6582 9.65699 24.6578 9.68039C24.6557 9.79791 24.5879 9.96863 24.5584 10.0865C24.4694 10.4344 24.3838 10.7831 24.3015 11.1325L24.029 12.2916C23.9823 12.4891 23.9503 12.7348 23.8632 12.9174C23.7556 13.1434 22.077 14.3867 21.7461 14.6342C21.7225 14.6143 21.72 14.6014 21.7209 14.5687C21.7264 14.3706 21.8081 14.1327 21.8391 13.9345C21.8885 13.6185 22.0429 12.1979 22.1473 12.0144C22.3027 11.7411 22.8974 11.2492 23.1492 11.013C23.6413 10.5464 24.1381 10.0849 24.6396 9.62842Z" fill="#EAB711"/>
<path d="M14.7578 9.52148C15.171 9.8854 15.5587 10.2866 15.9625 10.662C16.3991 11.0679 16.8906 11.4786 17.287 11.9218C17.3341 12.1478 17.3473 12.3893 17.377 12.6188C17.4617 13.2715 17.5315 13.9607 17.6885 14.599C17.5702 14.5216 17.459 14.4341 17.3469 14.3482C17.0524 14.1228 16.7665 13.8866 16.4741 13.6585C16.2403 13.4761 15.7365 13.1398 15.5717 12.9224C15.5235 12.8588 15.4994 12.7627 15.4786 12.686C15.3151 12.0841 15.1993 11.4586 15.0593 10.8503C14.9591 10.415 14.8165 9.96348 14.7578 9.52148Z" fill="#EAB711"/>
<path d="M11.1582 12.9429C11.579 12.9841 12.1733 13.1787 12.6039 13.2881C13.1873 13.4363 13.7842 13.5596 14.3612 13.7287C14.4269 13.748 14.5167 13.7706 14.5661 13.8195C14.846 14.0965 15.0909 14.4864 15.3321 14.8015C15.5844 15.131 15.9915 15.5887 16.1815 15.9395C15.7058 15.8774 15.2282 15.7794 14.7541 15.7028C14.502 15.6621 13.7507 15.5863 13.5634 15.4989C13.4788 15.4594 13.3982 15.3718 13.3327 15.3049C12.864 14.8263 12.4216 14.3095 11.9691 13.8144C11.7042 13.5244 11.4055 13.2454 11.1582 12.9429Z" fill="#EAB711"/>
<path d="M21.5859 21.7222C21.5977 21.7282 21.6097 21.7337 21.6211 21.7404C21.8327 21.8631 23.6094 23.2693 23.696 23.3999C23.8105 23.5727 24.3952 26.3001 24.5012 26.7597C24.4816 26.7489 24.4794 26.7483 24.4581 26.7333C24.2427 26.5819 22.0661 24.5165 21.9952 24.3738C21.9079 24.1977 21.8478 23.4935 21.8163 23.2655C21.7451 22.7503 21.6777 22.2342 21.5859 21.7222Z" fill="#EAB711"/>
<path d="M23.0898 20.1997C23.6972 20.3285 24.3157 20.4036 24.9289 20.4998C25.1835 20.5397 25.5018 20.5563 25.7403 20.6521C25.8272 20.687 25.8997 20.7648 25.9655 20.8302C26.2233 21.0861 26.4505 21.3739 26.6968 21.6409C27.1722 22.1562 27.6618 22.6619 28.106 23.205C27.7622 23.1493 24.9078 22.4398 24.7692 22.3441C24.546 22.1899 23.322 20.5129 23.0898 20.1997Z" fill="#EAB711"/>
<path d="M3.63605 16.896C3.86298 16.925 4.31894 17.1561 4.55023 17.2485C5.15481 17.4902 5.76831 17.7143 6.36619 17.9722C6.08788 18.1227 5.76584 18.2273 5.47123 18.3442C4.87077 18.5779 4.27211 18.8162 3.67525 19.0591C3.46526 19.0064 3.25954 18.9378 3.05325 18.8724C2.52852 18.7283 2.00796 18.5601 1.4862 18.405C1.02062 18.2666 0.541015 18.1422 0.0859375 17.9725C0.738046 17.7819 1.38896 17.5873 2.03869 17.3888C2.57178 17.2286 3.11003 17.078 3.63605 16.896Z" fill="#344BBD"/>
<path d="M35.5544 17.1958C35.6511 17.2096 35.7499 17.254 35.844 17.2826L36.5244 17.4838C37.4001 17.7462 38.2902 17.9936 39.1506 18.301C38.1845 18.5626 37.2382 18.8872 36.2738 19.1517C36.0353 19.2276 35.7952 19.2978 35.5535 19.3624C35.2389 19.2626 34.9271 19.1112 34.6198 18.9884L32.8672 18.3003C33.0997 18.1707 33.3599 18.0774 33.6062 17.9762C34.2527 17.7105 34.9163 17.4806 35.5544 17.1958Z" fill="#344BBD"/>
<path d="M9.99414 1.13916C10.0158 1.15373 10.0369 1.16809 10.057 1.18476C10.2023 1.30523 10.3305 1.45651 10.4686 1.58668C10.7601 1.8615 12.6215 3.55038 12.6947 3.69899C12.776 3.86419 13.0806 6.1992 13.1165 6.57134C12.8749 6.4397 12.5275 6.12292 12.2958 5.94132L11.3557 5.19826C11.1823 5.06166 11.0009 4.93233 10.8362 4.78537C10.6644 4.08166 10.5136 3.37266 10.3439 2.66825C10.2232 2.1672 10.0631 1.64932 9.99414 1.13916Z" fill="#344BBD"/>
<path d="M29.3527 1.42703C29.3969 1.38422 29.4398 1.33913 29.4885 1.30176C29.4741 1.47092 29.4443 1.63059 29.3966 1.79359C29.313 2.07198 29.2632 2.37104 29.1977 2.65496C29.0234 3.40854 28.8622 4.17252 28.6643 4.91994C28.3913 5.19719 28.0376 5.43529 27.7315 5.6767C27.2845 6.02918 26.8359 6.41884 26.3574 6.72748C26.4776 6.0776 26.556 5.41712 26.6501 4.76288C26.694 4.45713 26.7252 4.13947 26.8005 3.84011C27.1065 3.51221 27.454 3.21069 27.7823 2.90484L29.3527 1.42703Z" fill="#344BBD"/>
<path d="M26.1211 29.6724C26.3663 29.8253 26.7341 30.1593 26.9759 30.3504C27.4468 30.7229 27.946 31.0789 28.3955 31.476C28.674 32.6816 28.9727 33.8826 29.2426 35.0897C29.1552 35.0635 26.7484 32.8117 26.5259 32.5716C26.4207 32.1087 26.3792 31.6139 26.3122 31.1435C26.2435 30.6613 26.1324 30.1575 26.1211 29.6724Z" fill="#344BBD"/>
<path d="M12.8291 29.5513C12.849 29.5573 12.8361 29.5519 12.8625 29.5768C12.828 29.8571 12.7694 30.1347 12.7306 30.4143C12.6804 30.7754 12.5349 32.1603 12.4152 32.3989C12.2965 32.635 10.9918 33.7769 10.7032 34.0472C10.3943 34.3368 10.0941 34.6363 9.78307 34.9232C9.75321 34.9163 9.76916 34.9229 9.73828 34.8968C9.74227 34.8685 9.74674 34.8404 9.75171 34.8124C9.80852 34.487 10.5231 31.4303 10.587 31.3348C10.7208 31.135 12.4852 29.7949 12.8291 29.5513Z" fill="#344BBD"/>
<path d="M7.67179 13.0934C7.91914 13.0913 8.38241 13.0403 8.60255 13.1162C8.79845 13.1836 12.1125 15.6929 12.5068 16.0268C12.1563 16.0796 11.7998 16.1098 11.4476 16.1506L9.24729 16.4006C8.86826 16.4431 7.97484 16.5953 7.6333 16.5656C7.51596 16.5553 7.41229 16.4713 7.31553 16.4094L3.38432 13.9584C3.00331 13.7172 2.61304 13.4909 2.23633 13.2429C3.36933 13.2475 4.50614 13.1837 5.63875 13.1488C6.31107 13.1282 7.00328 13.163 7.67179 13.0934Z" fill="#344BBD"/>
<path d="M15.1072 0.612305C15.2718 0.757163 15.6254 1.40557 15.7597 1.62262L17.3065 4.13321C17.6791 4.74046 18.0945 5.34282 18.4301 5.97029C18.4124 6.51235 18.2986 7.15766 18.2319 7.70609C18.1246 8.6621 18.0086 9.61705 17.8838 10.5709L17.8533 10.8653C17.609 10.6007 17.4041 10.2911 17.1889 10.002C16.7744 9.44842 16.3641 8.89177 15.958 8.33206L15.2653 7.3988C15.1398 7.23018 14.9834 7.05781 14.8906 6.8693C14.9489 6.61614 14.9353 6.35623 14.9467 6.09841C14.9739 5.48041 14.9786 4.86249 14.9952 4.24443C15.0192 3.35536 15.0729 2.46725 15.0907 1.57765C15.0972 1.25518 15.1203 0.935036 15.1072 0.612305Z" fill="#344BBD"/>
<path d="M30.7815 13.3461C31.1711 13.3424 31.5544 13.366 31.9429 13.3777L34.6751 13.478C35.4868 13.5107 36.2979 13.51 37.1099 13.5538L32.6377 16.3155C32.3381 16.4946 32.0411 16.678 31.7467 16.8657C31.3237 16.8388 30.8926 16.7627 30.4709 16.7114L28.1802 16.4396C27.734 16.3843 27.2796 16.3076 26.8301 16.2929C27.4939 15.7338 28.2248 15.2328 28.9237 14.7183C29.542 14.263 30.1473 13.7786 30.7815 13.3461Z" fill="#344BBD"/>
<path d="M24.4416 0.715332C24.5172 0.919672 24.5056 2.58969 24.5153 2.94003C24.5528 4.28833 24.6298 5.63922 24.6426 6.98834C24.5007 7.21659 24.3223 7.43361 24.1605 7.649L23.3234 8.76815L22.2674 10.1824C22.0767 10.4366 21.8929 10.7121 21.6771 10.9451L21.6424 10.6286L21.3087 7.6618C21.2489 7.1371 21.2136 6.59212 21.1055 6.07587C21.2457 5.80051 21.4257 5.5387 21.5897 5.27674C21.8898 4.80642 22.1858 4.33354 22.4778 3.85811L23.746 1.81219C23.9726 1.44825 24.1877 1.06029 24.4416 0.715332Z" fill="#344BBD"/>
<path d="M7.54994 19.2622C7.83097 19.2676 8.23941 19.3539 8.53748 19.39L11.122 19.6999C11.5622 19.753 12.0177 19.8412 12.4602 19.8509C12.2181 20.0657 11.9345 20.252 11.6745 20.4459L10.1095 21.6068L9.09796 22.3549C8.90038 22.5015 8.70075 22.6719 8.48506 22.7902C8.04171 22.7968 7.5983 22.7588 7.15457 22.7583C6.3902 22.7612 5.62166 22.6949 4.85696 22.6724L3.12735 22.6237C2.88422 22.6164 2.63675 22.6244 2.39446 22.6061C2.33573 22.6016 2.27971 22.5999 2.23242 22.5636C2.284 22.4766 7.04038 19.5885 7.54994 19.2622Z" fill="#344BBD"/>
<path d="M31.4624 19.5729C31.5399 19.5621 31.6216 19.5615 31.6994 19.5562C31.965 19.6958 32.2215 19.8835 32.4763 20.0436L34.036 21.0153L35.9307 22.1932C36.2813 22.4107 36.7 22.6176 37.0017 22.8957C35.4464 22.961 33.8882 22.9616 32.333 23.0217C31.7862 23.0311 31.2392 23.0711 30.6921 23.0547C30.3734 22.8731 29.9711 22.5101 29.6578 22.2791C29.0435 21.8276 28.4314 21.3731 27.8217 20.9155C27.4818 20.6612 27.0958 20.4138 26.7988 20.1108L31.4624 19.5729Z" fill="#344BBD"/>
<path d="M21.447 25.2778C21.6175 25.4565 21.7577 25.6762 21.9052 25.875L22.7846 27.0674L23.8361 28.482C24.0196 28.7296 24.2257 28.9765 24.3821 29.2424C24.3795 29.7939 24.3363 30.35 24.315 30.9016L24.2197 34.0913C24.2093 34.5657 24.1592 35.0337 24.1795 35.5102C24.1174 35.4468 24.0673 35.3804 24.0167 35.3077L21.6062 31.3906C21.4019 31.0536 20.9703 30.4699 20.8477 30.131C20.9981 29.0973 21.1081 28.0516 21.2228 27.0131C21.2857 26.4444 21.3201 25.8355 21.447 25.2778Z" fill="#344BBD"/>
<path d="M32.4577 5.43799C32.4658 5.47181 32.464 5.49203 32.4547 5.52556C32.4189 5.65434 31.8971 6.56958 31.7913 6.768L30.465 9.21626C30.1739 9.75691 29.8982 10.3107 29.5899 10.8415C29.5548 10.9016 29.5193 10.963 29.4559 10.9964C28.9535 11.2601 28.401 11.4591 27.8785 11.6828L25.0157 12.9036C25.001 12.7915 26.741 8.79292 26.936 8.39992C27.1319 8.269 27.3542 8.16359 27.5623 8.05268L28.5876 7.50632C29.8768 6.81847 31.1827 6.15122 32.4577 5.43799Z" fill="#344BBD"/>
<path d="M14.2584 23.2388L14.2751 23.2549C14.2734 23.2653 14.2718 23.2756 14.2699 23.2859C14.237 23.4622 14.1218 23.6645 14.0499 23.8332L13.4145 25.293L12.7668 26.7986C12.6468 27.0773 12.5352 27.3693 12.3925 27.6369C12.3601 27.6979 12.329 27.7388 12.2702 27.7757C11.9126 28.001 11.5244 28.1885 11.1517 28.3877L9.21501 29.4202L7.70208 30.2304C7.41756 30.3833 7.13325 30.5521 6.83771 30.6822L6.82422 30.6678C6.82596 30.6435 6.825 30.6423 6.83311 30.6146C6.87514 30.4728 6.98716 30.3088 7.05845 30.1754L7.61175 29.148C8.28575 27.8968 8.94305 26.631 9.64102 25.3931C9.68128 25.3216 9.72772 25.2296 9.78937 25.1748C9.94579 25.0357 11.3782 24.4694 11.6697 24.3454C12.5331 23.9781 13.3907 23.5957 14.2584 23.2388Z" fill="#344BBD"/>
<path d="M24.8066 23.4297C25.2183 23.537 25.8608 23.8581 26.2765 24.0376C27.1885 24.4316 28.1063 24.8172 29.0128 25.2233C29.0997 25.2622 29.2533 25.318 29.3173 25.3898C29.4801 25.573 29.6006 25.8879 29.7171 26.1054L30.6502 27.8491L31.7834 29.9721C31.9447 30.2767 32.1553 30.5952 32.276 30.9148C31.9985 30.8163 31.7242 30.6387 31.4637 30.4987L29.943 29.6783L27.8475 28.5479C27.4742 28.3469 27.0795 28.1588 26.7231 27.9311C26.4434 27.3462 26.2095 26.7284 25.9541 26.1315C25.5697 25.2329 25.1678 24.3378 24.8066 23.4297Z" fill="#344BBD"/>
<path d="M17.5935 25.1987C17.6655 25.604 18.1756 30.0034 18.1531 30.0959C18.1093 30.275 17.3652 31.3895 17.2135 31.6322L15.194 34.8776C15.1201 34.9947 14.9621 35.2916 14.8947 35.3799C14.88 35.3991 14.8713 35.4033 14.8534 35.4153C14.8235 35.382 14.8215 35.3474 14.8166 35.303C14.7997 35.1501 14.8057 34.9899 14.7997 34.8358L14.7687 33.8024L14.6963 31.1636C14.6895 30.9449 14.7199 30.6787 14.6805 30.4679C14.6779 30.4496 14.6756 30.4313 14.6735 30.4129C14.6578 30.2747 14.6177 29.2398 14.6352 29.1641C14.6455 29.1196 14.6711 29.0881 14.6989 29.0532L16.7659 26.288L17.2894 25.5917C17.3866 25.4617 17.4786 25.3127 17.5935 25.1987Z" fill="#344BBD"/>
<path d="M7.00586 5.20508C7.30555 5.3515 7.59527 5.52384 7.88937 5.68147C8.51921 6.01453 9.14675 6.35186 9.77199 6.69347L11.4676 7.60389C11.7877 7.77717 12.1157 7.94486 12.4259 8.13523C12.4793 8.16797 12.5382 8.20219 12.5685 8.25906C12.7648 8.62799 12.9178 9.02438 13.0802 9.40951L13.7545 10.9933L14.2134 12.0616C14.3076 12.2785 14.4223 12.4984 14.4843 12.7264C14.4347 12.7145 14.3907 12.6983 14.3436 12.6789C13.3034 12.2533 12.2773 11.7854 11.2466 11.3372L10.4186 10.9779C10.2852 10.9197 10.1158 10.8651 9.99786 10.7802C9.93889 10.7378 9.89218 10.6453 9.85571 10.5816C9.2913 9.59565 8.78832 8.56644 8.25058 7.56472C7.9675 7.04819 7.68818 6.52963 7.41265 6.00904C7.27275 5.7442 7.122 5.48128 7.00586 5.20508Z" fill="#344BBD"/>
</g>
<g clip-path="url(#clip1_234_621)">
<path d="M123.503 0.385302C124.279 0.268938 125.046 0.276197 125.723 0.72122C126.286 1.09176 126.658 1.67693 126.788 2.33503C126.919 2.99424 126.819 3.71812 126.436 4.27939C126.069 4.81644 125.541 5.11673 124.912 5.23801C124.424 5.37347 123.809 5.32512 123.33 5.16888C122.765 4.98484 122.284 4.59365 122.016 4.0604C121.701 3.4329 121.664 2.66559 121.884 2.00202C122.163 1.16166 122.746 0.766113 123.503 0.385302Z" fill="#000316"/>
<path d="M95.2044 0.364833C95.8115 0.273818 96.5341 0.390629 97.0577 0.717389C97.5999 1.05587 97.9517 1.5947 98.0918 2.21394C98.247 2.90051 98.1574 3.66839 97.7732 4.26685C97.3805 4.87838 96.8113 5.16449 96.1205 5.3186C95.3937 5.36819 94.717 5.32787 94.0965 4.90854C94.0639 4.88605 94.0318 4.86275 94.0003 4.83863C93.9688 4.81458 93.938 4.78975 93.9078 4.76414C93.8775 4.7386 93.8478 4.71229 93.8189 4.68519C93.7899 4.65816 93.7616 4.63043 93.734 4.60199C93.7064 4.57362 93.6795 4.54455 93.6534 4.51477C93.6272 4.48499 93.6017 4.45461 93.5771 4.42364C93.5524 4.39267 93.5284 4.36111 93.5053 4.32894C93.4822 4.29671 93.4599 4.26399 93.4383 4.23078C93.4168 4.1975 93.3961 4.1637 93.3762 4.12938C93.3564 4.09513 93.3374 4.0604 93.3192 4.02519C93.3011 3.98997 93.2838 3.95431 93.2673 3.91821C93.2509 3.88217 93.2354 3.84573 93.2207 3.80888C93.2061 3.7721 93.1925 3.73495 93.1796 3.69742C93.1668 3.65998 93.155 3.62219 93.144 3.58408C93.1331 3.54603 93.1231 3.50769 93.1141 3.46905C93.105 3.43049 93.0969 3.39173 93.0897 3.3528C92.9605 2.68286 93.0642 1.94101 93.4566 1.3727C93.8917 0.742516 94.4761 0.49605 95.2044 0.364833Z" fill="#000316"/>
<path d="M122.109 9.37808C122.864 9.15429 125.294 9.32392 126.223 9.32973C126.243 9.35988 126.257 9.38512 126.27 9.41862C126.446 9.8728 126.414 27.0058 126.336 28.8038C126.329 28.9656 126.296 29.0968 126.23 29.2445C125.894 29.4179 122.793 29.2919 122.119 29.29C122.138 29.26 122.152 29.2364 122.163 29.2026C122.326 28.7179 122.247 11.5945 122.217 9.93489C122.213 9.72841 122.195 9.5696 122.109 9.37808Z" fill="#000316"/>
<path d="M196.108 33.448C195.673 34.0344 193.017 34.8265 192.287 35.0264C187.458 36.3484 182.535 35.7769 178.195 33.2971C176.064 32.0799 174.358 30.4524 172.813 28.5681C172.49 28.1752 172.034 27.7164 171.898 27.2211C172.146 26.6347 174.163 25.8271 174.743 25.3274L174.774 25.3003C175.318 25.603 175.834 26.5159 176.241 27.02C178.326 29.6017 180.949 31.3317 184.192 32.1199C186.944 32.7891 189.511 32.6703 192.211 31.8427C192.877 31.6389 193.638 31.4213 194.236 31.057C194.67 31.2284 195.889 32.789 196.075 33.2578C196.098 33.3167 196.105 33.3854 196.108 33.448Z" fill="#EAB711"/>
<path d="M93.5215 9.31744C94.9091 9.33211 96.2967 9.33144 97.6843 9.31543C97.7569 15.9678 97.6786 22.6323 97.6646 29.2855L93.5234 29.2843L93.5215 9.31744Z" fill="#000316"/>
<path d="M187.481 0.221925C188.663 0.115611 190.078 0.352696 191.244 0.592126C191.385 0.620938 191.526 0.6515 191.666 0.683811C191.807 0.716122 191.947 0.750108 192.086 0.785769C192.226 0.821505 192.365 0.858917 192.504 0.898003C192.642 0.937089 192.78 0.97785 192.918 1.02029C193.056 1.0628 193.193 1.10695 193.33 1.15273C193.466 1.19859 193.602 1.24609 193.738 1.29523C193.873 1.34437 194.008 1.39514 194.142 1.44755C194.276 1.49997 194.41 1.55402 194.543 1.6097C194.675 1.66539 194.807 1.72268 194.939 1.78157C195.071 1.84054 195.202 1.90106 195.331 1.96315C195.462 2.02525 195.591 2.0889 195.719 2.15412C195.848 2.21941 195.975 2.28623 196.102 2.35457C196.229 2.42299 196.355 2.4929 196.48 2.5643C196.605 2.63577 196.729 2.70873 196.852 2.78318C196.976 2.85771 197.098 2.93368 197.22 3.01111C197.341 3.08854 197.462 3.16745 197.581 3.24786C197.701 3.32826 197.819 3.41012 197.937 3.49343C198.054 3.57674 198.171 3.66146 198.286 3.7476C198.402 3.83374 198.516 3.92129 198.63 4.01026C198.743 4.09915 198.855 4.18946 198.966 4.28118C199.077 4.37283 199.187 4.46582 199.296 4.56015C199.405 4.65455 199.513 4.75022 199.62 4.84715C199.726 4.94416 199.831 5.04243 199.936 5.14197C200.04 5.24158 200.143 5.34243 200.244 5.4445C200.346 5.54649 200.446 5.64976 200.545 5.75428C200.644 5.85881 200.742 5.96453 200.839 6.07144C200.935 6.17835 201.03 6.28641 201.124 6.39563C201.218 6.50485 201.31 6.61522 201.402 6.72674C201.493 6.83819 201.583 6.95076 201.671 7.06445C201.76 7.17813 201.847 7.2929 201.932 7.40874C202.018 7.52451 202.102 7.64132 202.185 7.75918C202.268 7.87703 202.35 7.99589 202.429 8.11575C202.51 8.23882 202.589 8.36285 202.666 8.48785C202.743 8.61285 202.818 8.73882 202.893 8.86576C202.966 8.99262 203.039 9.12038 203.11 9.24903C203.181 9.37767 203.25 9.50718 203.318 9.63754C203.386 9.7679 203.452 9.89908 203.517 10.0311C203.582 10.1631 203.645 10.2958 203.706 10.4293C203.767 10.5629 203.826 10.6971 203.884 10.8321C203.942 10.9672 203.999 11.1029 204.054 11.2393C204.108 11.3757 204.161 11.5127 204.213 11.6504C204.264 11.7881 204.314 11.9264 204.361 12.0652C204.41 12.2042 204.456 12.3436 204.5 12.4837C204.544 12.6237 204.587 12.7643 204.628 12.9055C204.669 13.0466 204.709 13.1881 204.747 13.3302C204.784 13.4722 204.819 13.6147 204.854 13.7577C204.887 13.9006 204.919 14.0439 204.95 14.1876C204.98 14.3314 205.009 14.4755 205.036 14.6199C205.063 14.7643 205.089 14.9091 205.112 15.0542C205.135 15.1992 205.156 15.3446 205.176 15.4902C205.196 15.6357 205.214 15.7815 205.23 15.9275C205.246 16.0736 205.261 16.2198 205.274 16.3662C205.286 16.5125 205.297 16.659 205.306 16.8057C205.315 16.9524 205.322 17.0991 205.327 17.2459C205.333 17.3927 205.337 17.5396 205.338 17.6866C205.34 17.8335 205.34 17.9804 205.338 18.1273C205.336 18.2742 205.332 18.4211 205.327 18.5679C205.322 18.7147 205.315 18.8615 205.306 19.0082C205.296 19.1547 205.285 19.3012 205.272 19.4476C205.26 19.594 205.246 19.7403 205.23 19.8862C205.214 20.0322 205.195 20.1781 205.175 20.3237C205.155 20.4692 205.134 20.6145 205.111 20.7595C205.087 20.9046 205.062 21.0494 205.035 21.1938C205.008 21.3383 204.979 21.4823 204.949 21.626C204.481 23.8814 203.55 25.8096 202.316 27.7402C202.051 28.1561 201.734 28.7563 201.319 29.0279C201.298 29.1519 201.225 29.2159 201.143 29.303C200.488 29.2731 199.636 27.6792 199.04 27.2792C199.116 27.2362 199.178 27.1883 199.24 27.1277C199.891 26.4936 200.374 25.6611 200.806 24.8689C202.051 22.5801 202.739 20.426 202.775 17.8045C202.835 13.6341 201.382 9.72487 198.454 6.7254C198.364 6.63353 198.274 6.54282 198.182 6.45325C198.091 6.36362 197.998 6.27513 197.904 6.1878C197.81 6.10047 197.715 6.01433 197.619 5.92939C197.523 5.84444 197.426 5.76068 197.328 5.67812C197.23 5.59555 197.131 5.51422 197.031 5.43411C196.931 5.354 196.83 5.27516 196.728 5.19758C196.626 5.12001 196.523 5.0437 196.419 4.96865C196.315 4.89361 196.211 4.81986 196.105 4.74742C195.999 4.67498 195.893 4.60385 195.785 4.53401C195.677 4.46425 195.569 4.3958 195.46 4.32864C195.35 4.26156 195.24 4.19583 195.13 4.13143C195.019 4.06703 194.908 4.00404 194.795 3.94247C194.683 3.88083 194.57 3.8206 194.456 3.76179C194.342 3.70297 194.227 3.64557 194.112 3.58958C193.996 3.5336 193.88 3.47906 193.763 3.42598C193.647 3.3729 193.53 3.32127 193.412 3.27109C193.294 3.22091 193.176 3.17218 193.056 3.12491C192.937 3.07763 192.817 3.03188 192.697 2.98766C192.576 2.94336 192.455 2.90055 192.334 2.85923C192.213 2.81799 192.091 2.77823 191.969 2.73996C191.847 2.7017 191.724 2.66495 191.6 2.62974C191.477 2.59452 191.354 2.56084 191.229 2.52867C191.105 2.49651 190.981 2.46591 190.856 2.43688C190.731 2.40777 190.606 2.38022 190.48 2.35424C190.355 2.32833 190.229 2.30395 190.103 2.28109C189.977 2.25824 189.851 2.23694 189.724 2.21721C189.597 2.19756 189.471 2.17943 189.343 2.16283C189.216 2.1463 189.089 2.13134 188.961 2.11794C188.834 2.10446 188.706 2.09262 188.578 2.08242C188.45 2.07215 188.322 2.06348 188.194 2.0564C188.066 2.04933 187.938 2.04386 187.81 2.03999C187.682 2.03612 187.554 2.03381 187.426 2.03306C187.656 1.60758 187.582 0.688501 187.481 0.221925Z" fill="#EAB711"/>
<path d="M101.645 0.548055C102.962 0.413487 104.377 0.52036 105.703 0.526613C105.722 0.554197 105.739 0.580441 105.754 0.610146C105.873 0.842429 105.936 18.0846 105.748 18.6814C105.798 18.6582 105.848 18.6326 105.893 18.6015C106.441 18.2264 108.333 15.7338 108.938 15.0119C110.456 13.2022 112.08 11.434 113.523 9.56689C113.574 9.50067 113.596 9.42495 113.611 9.34354L118.62 9.35248C118.619 9.38553 118.615 9.41803 118.605 9.44975C118.498 9.77304 110.665 18.4658 110.27 18.6805C110.693 18.918 116.488 25.2601 116.622 25.6469C116.999 25.8564 119.881 28.9841 119.991 29.2938C118.267 29.2715 116.54 29.2895 114.816 29.2877C114.813 29.2742 114.811 29.2606 114.808 29.2472C114.774 29.1002 106.204 19.1317 105.716 18.8414C105.746 18.9087 105.77 18.976 105.788 19.0474C105.979 19.8195 105.834 21.8877 105.835 22.7985C105.838 24.815 105.961 26.9093 105.828 28.918C105.819 29.0581 105.777 29.1682 105.704 29.288L101.592 29.2861C101.724 29.063 101.717 28.8619 101.722 28.612C101.819 23.1074 101.68 17.5846 101.715 12.0777L101.696 4.04995C101.695 3.0738 101.859 1.40516 101.645 0.548055Z" fill="#000316"/>
<path d="M135.219 0.303836C138.731 0.270111 142.244 0.255146 145.756 0.258943C148.026 0.25872 150.327 0.174852 152.587 0.396079C152.602 0.430028 152.615 0.462638 152.627 0.49748C152.764 0.882199 152.762 4.91733 152.573 5.31501L143.392 5.32729C143.444 5.41228 143.486 5.49972 143.509 5.59721C143.678 6.3069 143.54 10.0261 143.54 11.0894C143.54 15.8716 143.642 20.6732 143.54 25.4531C143.535 25.6851 143.526 25.8535 143.4 26.056C143.453 26.1304 143.492 26.2094 143.51 26.2991C143.624 26.8722 143.697 28.7257 143.398 29.2002L137.915 29.1972C137.957 29.1338 137.993 29.0666 138.012 28.9927C138.185 28.3374 138.052 23.2967 138.052 22.2423L138.056 11.5856C138.059 9.67445 138.118 7.74884 138.057 5.83977C138.05 5.64054 138.027 5.49927 137.923 5.32528C134.871 5.29357 131.815 5.32271 128.762 5.32562C128.796 5.27525 128.824 5.22556 128.846 5.1686C129.027 4.69901 128.976 0.780351 128.781 0.354536C130.925 0.302272 133.074 0.31478 135.219 0.303836Z" fill="#344BBD"/>
<path d="M192.079 28.1617C189.813 29.3075 186.373 29.1945 184.006 28.416C180.957 27.4125 178.434 25.1141 177 22.2588C176.957 22.1726 176.915 22.0859 176.874 21.9987C176.834 21.9115 176.794 21.8238 176.755 21.7356C176.717 21.6475 176.679 21.5588 176.643 21.4697C176.605 21.3806 176.57 21.291 176.535 21.201C176.501 21.111 176.468 21.0206 176.436 20.9299C176.404 20.8391 176.373 20.7479 176.343 20.6563C176.313 20.5647 176.285 20.4728 176.257 20.3806C176.23 20.2883 176.203 20.1957 176.178 20.1028C176.153 20.0099 176.128 19.9167 176.105 19.8232C176.082 19.7297 176.06 19.6359 176.04 19.5418C176.019 19.4477 176 19.3534 175.981 19.2589C175.963 19.1644 175.946 19.0697 175.93 18.9747C175.914 18.8798 175.899 18.7846 175.885 18.6894C175.871 18.594 175.859 18.4985 175.847 18.4029C175.836 18.3073 175.826 18.2116 175.817 18.1157C175.808 18.0198 175.801 17.9238 175.794 17.8278C175.787 17.7317 175.782 17.6355 175.777 17.5393C175.773 17.4431 175.77 17.3469 175.768 17.2507C175.766 17.1544 175.765 17.0581 175.766 16.9617C175.767 16.8655 175.769 16.7692 175.771 16.673C175.774 16.5767 175.777 16.4805 175.783 16.3843C175.788 16.2882 175.795 16.1921 175.803 16.0962C175.81 16.0001 175.819 15.9042 175.828 15.8085C175.838 15.7127 175.849 15.617 175.862 15.5215C175.875 15.426 175.888 15.3306 175.902 15.2355C175.917 15.1403 175.933 15.0453 175.95 14.9505C175.967 14.8557 175.984 14.7612 176.004 14.6668C176.023 14.5725 176.044 14.4784 176.065 14.3845C176.087 14.2907 176.11 14.1972 176.134 14.1039C176.158 14.0106 176.183 13.9177 176.209 13.825C176.235 13.7323 176.262 13.64 176.291 13.548C176.32 13.456 176.35 13.3644 176.38 13.2731C176.411 13.1801 176.443 13.0874 176.476 12.9951C176.509 12.9028 176.543 12.811 176.579 12.7195C176.614 12.628 176.65 12.5371 176.688 12.4465C176.726 12.3559 176.764 12.2658 176.804 12.1763C176.844 12.0866 176.885 11.9975 176.926 11.9089C176.969 11.8203 177.012 11.7323 177.056 11.6447C177.1 11.5571 177.145 11.4702 177.191 11.3837C177.238 11.2973 177.285 11.2114 177.334 11.1262C177.382 11.0409 177.431 10.9563 177.481 10.8721C177.532 10.7881 177.584 10.7047 177.636 10.6219C177.689 10.5391 177.742 10.4569 177.796 10.3754C177.851 10.294 177.907 10.2132 177.964 10.1331C178.019 10.0529 178.077 9.97345 178.136 9.89476C178.194 9.81607 178.254 9.73808 178.314 9.6608C178.375 9.58352 178.436 9.50702 178.497 9.43131C178.56 9.35552 178.623 9.28055 178.687 9.2064C178.751 9.13217 178.816 9.05876 178.883 8.98618C178.948 8.91351 179.015 8.84171 179.083 8.77076C179.15 8.6998 179.219 8.62967 179.288 8.56036C179.357 8.49105 179.428 8.42263 179.499 8.3551C179.57 8.2875 179.642 8.22079 179.715 8.15498C179.787 8.08924 179.86 8.02436 179.935 7.96033C180.009 7.89631 180.084 7.83321 180.16 7.77104C180.236 7.70888 180.313 7.64768 180.39 7.58745C180.468 7.52715 180.546 7.46781 180.624 7.40944C180.703 7.35107 180.782 7.29367 180.863 7.23724C180.943 7.18088 181.024 7.12545 181.105 7.07096C181.187 7.01653 181.269 6.96312 181.352 6.9107C181.435 6.85829 181.519 6.80692 181.603 6.75659C181.687 6.70619 181.772 6.65687 181.857 6.60862C181.942 6.56031 182.028 6.51307 182.115 6.46691C182.201 6.42075 182.288 6.37563 182.376 6.33156C185.124 4.95707 188.585 4.69475 191.504 5.66888C191.597 5.70008 191.69 5.73235 191.783 5.7657C191.876 5.79913 191.968 5.83368 192.059 5.86934C192.151 5.905 192.242 5.94178 192.333 5.97967C192.424 6.01757 192.514 6.05654 192.604 6.0966C192.694 6.13665 192.784 6.17782 192.872 6.22011C192.961 6.26232 193.049 6.30561 193.137 6.34999C193.225 6.39443 193.312 6.43992 193.399 6.48645C193.486 6.53291 193.572 6.58044 193.657 6.62906C193.743 6.67768 193.828 6.72733 193.912 6.77803C193.996 6.82873 194.08 6.88044 194.163 6.93315C194.246 6.98586 194.328 7.03958 194.41 7.0943C194.492 7.14902 194.573 7.20471 194.653 7.26136C194.734 7.31809 194.813 7.37575 194.892 7.43435C194.971 7.49301 195.049 7.55261 195.127 7.61314C195.205 7.67367 195.282 7.73512 195.358 7.79751C195.434 7.8599 195.509 7.92322 195.584 7.98747C195.658 8.05165 195.732 8.11675 195.805 8.18279C195.878 8.24883 195.95 8.31572 196.021 8.38347C196.092 8.45129 196.163 8.51993 196.233 8.5894C196.302 8.65893 196.371 8.72925 196.439 8.80035C196.507 8.87152 196.574 8.94351 196.64 9.01633C196.706 9.08914 196.772 9.16273 196.836 9.23711C196.9 9.31148 196.963 9.38664 197.025 9.46258C197.088 9.53852 197.15 9.61516 197.211 9.69252C197.271 9.76994 197.331 9.84812 197.389 9.92703C197.448 10.0059 197.506 10.0855 197.564 10.1658C197.62 10.246 197.676 10.327 197.731 10.4086C197.786 10.4902 197.839 10.5725 197.892 10.6555C197.945 10.7384 197.997 10.822 198.048 10.9062C198.099 10.9905 198.148 11.0753 198.197 11.1607C198.246 11.2461 198.294 11.3321 198.341 11.4187C198.387 11.5053 198.432 11.5924 198.477 11.6801C198.52 11.7673 198.563 11.855 198.604 11.9433C198.645 12.0315 198.686 12.1202 198.725 12.2094C198.765 12.2987 198.803 12.3884 198.839 12.4786C198.876 12.5687 198.912 12.6593 198.946 12.7503C198.981 12.8413 199.015 12.9328 199.048 13.0247C199.081 13.1165 199.112 13.2087 199.142 13.3013C199.172 13.3939 199.201 13.4869 199.229 13.5802C199.257 13.6735 199.284 13.7672 199.31 13.8612C199.336 13.9552 199.36 14.0494 199.384 14.144C199.407 14.2386 199.429 14.3335 199.45 14.4285C199.471 14.5237 199.492 14.619 199.51 14.7146C199.529 14.8102 199.546 14.906 199.563 15.0021C199.579 15.0981 199.594 15.1944 199.608 15.2908C199.623 15.3872 199.636 15.4837 199.648 15.5804C199.659 15.6772 199.67 15.774 199.679 15.871C199.688 15.968 199.697 16.065 199.703 16.1622C199.711 16.2594 199.717 16.3567 199.721 16.454C199.726 16.5513 199.729 16.6486 199.731 16.746C199.733 16.8435 199.735 16.9409 199.735 17.0382C199.735 17.1357 199.733 17.2331 199.731 17.3305C199.728 17.4279 199.725 17.5252 199.72 17.6225C199.715 17.7198 199.709 17.8171 199.701 17.9142C199.694 18.0114 199.686 18.1085 199.677 18.2055C199.667 18.3024 199.656 18.3992 199.644 18.4959C199.632 18.5926 199.619 18.6891 199.604 18.7855C199.59 18.8818 199.575 18.978 199.558 19.0741C199.541 19.17 199.523 19.2658 199.505 19.3614C199.485 19.4569 199.465 19.5522 199.444 19.6473C199.423 19.7424 199.4 19.8371 199.376 19.9316C199.352 20.0262 199.328 20.1204 199.302 20.2143C199.276 20.3082 199.249 20.4018 199.221 20.495C199.193 20.5883 199.163 20.6812 199.133 20.7738C198.79 21.782 197.741 24.226 196.795 24.7253C196.71 24.2477 194.186 21.2512 193.75 20.946C193.727 20.9294 193.703 20.914 193.679 20.8986C194.532 20.1076 194.887 18.4593 194.93 17.3466C194.936 17.2287 194.938 17.1106 194.938 16.9926C194.937 16.8745 194.934 16.7565 194.927 16.6387C194.921 16.5207 194.912 16.4031 194.899 16.2857C194.887 16.1683 194.872 16.0512 194.853 15.9346C194.835 15.8179 194.815 15.7018 194.791 15.5861C194.767 15.4705 194.74 15.3556 194.71 15.2413C194.681 15.127 194.648 15.0135 194.612 14.9009C194.577 14.7883 194.539 14.6766 194.498 14.5659C194.457 14.4551 194.413 14.3454 194.366 14.2369C194.32 14.1283 194.271 14.021 194.219 13.9149C194.168 13.8088 194.113 13.7041 194.056 13.6008C193.999 13.4974 193.939 13.3955 193.877 13.2951C193.815 13.1947 193.75 13.0959 193.683 12.9988C193.616 12.9016 193.547 12.8062 193.475 12.7124C193.403 12.6188 193.329 12.5269 193.252 12.4369C193.176 12.347 193.097 12.259 193.016 12.1729C191.725 10.7854 189.915 9.90559 188.011 9.84942C187.892 9.8457 187.773 9.84492 187.654 9.84707C187.535 9.84916 187.415 9.85422 187.296 9.86226C187.177 9.87023 187.058 9.88114 186.94 9.89498C186.822 9.90883 186.704 9.92558 186.586 9.94524C186.468 9.96489 186.351 9.98745 186.234 10.0129C186.118 10.0383 186.002 10.0666 185.887 10.0977C185.772 10.1288 185.658 10.1627 185.544 10.1995C185.431 10.2362 185.319 10.2757 185.207 10.318C185.095 10.3603 184.985 10.4053 184.876 10.453C184.767 10.5007 184.659 10.5511 184.551 10.6042C184.445 10.6572 184.34 10.7129 184.235 10.7711C184.132 10.8293 184.029 10.89 183.928 10.9533C183.827 11.0166 183.728 11.0823 183.63 11.1505C183.532 11.2187 183.436 11.2893 183.342 11.3622C183.247 11.4351 183.155 11.5102 183.064 11.5877C182.973 11.6652 182.884 11.7448 182.798 11.8266C182.713 11.9084 182.63 11.9923 182.549 12.0781C182.468 12.1639 182.389 12.2517 182.313 12.3414C182.237 12.4311 182.162 12.5227 182.09 12.6162C182.018 12.7095 181.948 12.8046 181.88 12.9014C181.813 12.9982 181.748 13.0965 181.686 13.1965C181.623 13.2965 181.563 13.398 181.505 13.501C181.448 13.6038 181.393 13.7081 181.341 13.8138C181.288 13.9194 181.238 14.0263 181.191 14.1344C181.143 14.2425 181.099 14.3517 181.057 14.4619C181.015 14.5722 180.976 14.6834 180.94 14.7956C180.903 14.9078 180.869 15.0208 180.838 15.1346C180.808 15.2485 180.78 15.363 180.754 15.4783C180.729 15.5935 180.707 15.7093 180.687 15.8256C180.668 15.9419 180.651 16.0586 180.637 16.1758C180.624 16.2929 180.613 16.4103 180.605 16.528C180.597 16.6456 180.591 16.7634 180.589 16.8813C180.544 18.8489 181.311 20.6495 182.672 22.058C182.752 22.1407 182.835 22.2214 182.919 22.3001C183.003 22.3787 183.089 22.4552 183.177 22.5296C183.264 22.604 183.354 22.6762 183.446 22.7462C183.537 22.8161 183.63 22.8837 183.725 22.949C183.82 23.0142 183.917 23.0772 184.014 23.1377C184.112 23.1982 184.212 23.2563 184.312 23.3119C184.414 23.3675 184.516 23.4206 184.619 23.471C184.723 23.5216 184.828 23.5695 184.933 23.6149C185.039 23.6602 185.146 23.7029 185.254 23.7429C185.362 23.7829 185.472 23.8202 185.581 23.8549C185.691 23.8895 185.802 23.9213 185.913 23.9505C186.024 23.9796 186.137 24.0059 186.25 24.0295C186.362 24.053 186.475 24.0738 186.589 24.0917C186.703 24.1097 186.817 24.1248 186.931 24.1371C187.046 24.1493 187.161 24.1588 187.276 24.1654C187.391 24.172 187.506 24.1757 187.621 24.1766C188.068 24.1833 188.51 24.1524 188.948 24.0651C188.922 23.807 185.537 19.238 185.101 18.869C185.066 18.8393 185.027 18.8131 184.988 18.7884C186.682 18.7067 188.501 18.9181 190.166 18.6645C190.561 18.8954 199.736 30.3308 199.879 30.7751C199.891 30.8119 199.889 30.8346 199.885 30.8725C199.634 31.4402 196.971 33.1424 196.324 33.3929C196.255 33.4199 196.183 33.4383 196.11 33.4484C196.106 33.3858 196.1 33.3172 196.076 33.2582C195.891 32.7894 194.671 31.2288 194.237 31.0574C194.257 30.7326 192.634 28.7195 192.319 28.3626C192.25 28.2843 192.165 28.2207 192.079 28.1617Z" fill="#344BBD"/>
<path d="M159.871 5.12715C162.107 4.95394 164.669 5.23078 166.722 6.17667C169.21 7.32301 170.911 9.29172 171.849 11.8446C172.401 13.3427 173.057 17.796 172.448 19.1138C169.427 19.0616 166.398 19.1008 163.377 19.1018C160.464 19.1028 157.545 19.0632 154.634 19.127C154.848 19.3519 154.919 19.6779 155.026 19.9641C155.439 21.0697 156.019 22.0204 157.022 22.6859C158.944 23.9606 161.439 24.1224 163.65 23.6773C164.838 23.4379 166.876 22.8476 167.562 21.8183C167.837 21.959 168.188 22.2421 168.294 22.5406C168.808 22.8352 170.957 24.9071 171.116 25.3711C171.106 25.4223 171.097 25.455 171.065 25.4977C169.729 27.2874 165.74 28.6081 163.576 28.8772C160.008 29.321 156.141 28.7636 153.246 26.5078C150.817 24.6146 149.469 21.8625 149.1 18.8359C148.703 15.5804 149.322 12.029 151.382 9.40328C153.563 6.62236 156.459 5.53722 159.871 5.12715ZM160.941 10.0323C159.048 10.2015 157.275 10.7662 156.012 12.2662C155.515 12.8551 155.125 14.1184 154.766 14.4432L160.948 14.4292L167.082 14.4321C167.157 13.6142 166.66 12.5917 166.146 11.9796C165.148 10.7895 163.609 10.1974 162.09 10.0714C161.716 10.0404 161.316 10.018 160.941 10.0323Z" fill="#344BBD"/>
<path d="M67.8667 0.498166L70.8095 0.486328C71.2404 1.44472 71.5358 2.48832 71.8788 3.48289L73.6365 8.52969C75.3324 13.4081 77.1084 18.283 78.7026 23.1939L85.9031 0.499618L91.0559 0.505537C90.802 1.40552 90.4264 2.29657 90.1077 3.17713L84.1816 19.7042C83.0266 22.8837 81.7626 26.0588 80.7393 29.2815L76.6386 29.2885C75.3334 26.1101 73.9922 22.8688 72.8522 19.6287C71.6512 16.215 70.6304 12.7368 69.376 9.34067C68.8311 11.2627 68.144 13.1663 67.5215 15.0654C66.8884 16.9973 66.3053 18.9671 65.5871 20.8685C64.5244 23.6821 63.3175 26.4504 62.3172 29.2863L58.2255 29.2842L47.6641 0.507323L52.8199 0.502187L60.2757 23.146C60.8812 21.1357 61.6264 19.1557 62.2913 17.163L67.8667 0.498166Z" fill="#000316"/>
</g>
<defs>
<clipPath id="clip0_234_621">
<rect width="39.6923" height="36" fill="white"/>
</clipPath>
<clipPath id="clip1_234_621">
<rect width="158.769" height="36" fill="white" transform="translate(47.0762)"/>
</clipPath>
</defs>
</svg>
